<?xml version="1.0" encoding="utf-8"?>
<!-- Generator: Adobe Illustrator 16.0.0, SVG Export Plug-In . SVG Version: 6.00 Build 0)  -->
<!DOCTYPE svg PUBLIC "-//W3C//DTD SVG 1.1//EN" "http://www.w3.org/Graphics/SVG/1.1/DTD/svg11.dtd">
<svg version="1.1" id="Layer_1" xmlns="http://www.w3.org/2000/svg" xmlns:xlink="http://www.w3.org/1999/xlink" x="0px" y="0px"
	 width="396px" height="85px" viewBox="0 0 396 85" enable-background="new 0 0 396 85" xml:space="preserve">
<g>
	<path fill-rule="evenodd" clip-rule="evenodd" fill="#9FA274" d="M2.915,40.795C4.07,15.073,20.875,1.509,53.565,3.04
		c27.107,0.489,46.076,10.543,46.412,37.861C99.346,70.09,84.071,80.784,53.692,81.914C18.129,82.632,3.252,69.347,2.915,40.795z
		 M0,40.731C1.216,13.052,18.987-1.531,53.545,0.127c28.682,0.509,48.737,11.33,49.094,40.711
		c-0.67,31.421-16.824,42.923-48.947,44.133C16.073,85.738,0.334,71.454,0,40.731z"/>
	<path fill-rule="evenodd" clip-rule="evenodd" fill="#9FA274" d="M17.772,41.263c1.279-21.419,11.537-24.062,34.786-24.296
		c20.226,0.533,31.64,2.75,31.893,24.358c0.124,22.823-9.631,25.656-31.789,26.383C25.427,67.644,17.624,61.144,17.772,41.263z
		 M14.75,41.155c-0.023-21.396,12.777-27.342,38.1-27.257c20.248,0.918,35.249,3.729,34.915,27.319
		C87.744,65.874,76.247,70.03,52.936,70.841C23.582,70.925,14.266,62.657,14.75,41.155z"/>
	<path fill-rule="evenodd" clip-rule="evenodd" fill="#9FA274" d="M52.285,35.555L53.5,56.518l-2.16,1.883l0.148-22.763
		L52.285,35.555z M50.145,35.555l-1.617,20.54l1.891,2.223l0.524-22.7L50.145,35.555z M53.188,32.548
		c1.447,0.148,1.382,1.354,0.463,1.99c-1.427,0.654-3.486,0.591-4.45,0.042c-1.259-0.74-0.903-2.011,0.376-2.052v0.718l-0.648,0.063
		l-0.021,0.423c1.132,0.528,3.713,0.594,4.95,0.128l-0.02-0.486l-0.65-0.064V32.548z M50.668,33.182l1.471,0.488l0.061-0.785
		l-1.655-0.484L50.668,33.182z M50.418,31.723l1.866,0.806v-0.783l-1.89-0.679L50.418,31.723z M50.418,30.412l1.847,0.76
		l-0.041-0.739l-1.784-0.72L50.418,30.412z M50.44,28.613l1.845,1.205l-0.104-0.844L50.44,28.613z M42.824,36.315l0.104,0.656
		c0.481-0.064,0.86-0.296,1.175-0.614C43.641,36.4,43.178,36.4,42.824,36.315z M42.675,33.499c-0.647,0.13-1.069,0.531-0.755,1.082
		l0.463,0.679c0.522,0.673,0.922,0.442,1.32,0.146v-0.951l2.245-0.106c0.272-0.274,0.44-0.57,0.544-0.89l-2.35,0.297l0.189-0.486
		c0.734-0.655,1.723-0.952,2.748-0.972l0.086-0.722c-0.295,0.106-0.588,0.021-0.903-0.337c0.271-0.426,0.671-0.678,1.176-0.762
		l0.315-0.487l-2.161-0.127C45.108,31.301,44.124,32.529,42.675,33.499z M37.557,30.983c-0.042,0.212,0.356,0.613,0.522,0.763
		l1.365,0.824c0.127-0.613,0.544-0.995,1.321-1.121c-0.271-0.679-0.631-1.123-1.239-0.763l-1.067,0.19L37.557,30.983z
		 M37.914,47.844c-0.548-0.168-0.841,0.043-1.009,0.508c0.168,0.252,0,0.72,0.506,0.806c0.334,0.337,0.669,0.252,1.004-0.256
		c0.336-0.592,0.758-0.846,1.345-0.761c0.503-0.126,0.587,0.38,0.294,0.636c-0.628,0.549-1.217,1.184-1.721,2.157
		c-0.337,0.295-0.504,0.677-0.588,1.186l-0.461,0.971c-0.42,0-0.502,0.89-0.041,1.354c0.123,0.593,0.418,0.89,0.628,0.339
		c0.043-0.295,0.209-0.634,0.503-0.591c0.504-0.213,0.422-0.848,0.086-1.229c-0.17-0.675,0.041-1.1,0.672-1.226
		c0.46-0.594,1.551-0.403,1.445,0.126c-0.355,0.295-0.543,0.698-0.755,1.271c-0.25,0.633-0.165,1.354,0.483,1.204
		c0.398-0.211,0.607-0.063,0.901,0.149c0.44-0.401,0.776-0.277,1.259,0.295c0.169,0.128,0.546,0.128,0.672-0.106
		c-0.02-0.38,0.104-0.656,0.377-0.782c0.021,0.424,0.4,0.847,1.07,1.187c0.838-0.214,0.883-1.061,0.295-1.566
		c0.775-0.677-0.357-0.869-0.63-0.803c-0.671,0.02-1.322,0.148-1.929,0.464c-1.723,0.423-1.218-1.565-1.218-1.565
		c-0.127-0.762,0-1.481,0.418-2.116c0.8-0.213,1.009-1.396,0.212-1.904c-0.295-0.254-0.339-0.591-0.463-0.933
		c-0.252-0.677-1.303-0.844-1.764-0.293c-0.461,0.209-0.838,0.549-1.133,1.015L37.914,47.844z M31.325,38.642l-0.713-0.212
		c-0.358,0.825-0.441,1.565-0.254,2.285c0.084,0.486,0.148,1.014,0.211,1.438c0.063,0.572,0.125,1.292-0.252,1.863
		c-0.881,0.338-1.553,0.19-2.056-0.401c-1.72,1.119-0.585,3.786,0.335,3.937c1.953,0.062,2.539-2.711,2.604-3.409
		c0.188-0.993,0.125-1.926-0.125-2.77C30.76,40.335,30.862,39.425,31.325,38.642z M30.379,29.291
		c-0.167,0.571-0.25,1.207-0.23,1.926c0.104,0.888,0.23,1.798,0.59,2.835c0.188,0.529,0.271,1.057,0.291,1.629
		c0.023,0.424,0.421,0.635,0.631,0.357c-0.022-0.759-0.146-1.542-0.357-2.261c-0.588-0.955-0.691-1.907-0.564-2.73
		c-0.064-0.528-0.148-0.866,0.082-1.354L30.379,29.291z M37.829,28.954c0.461,0.04,0.945-0.022,1.531-0.234
		c0.525-0.168,1.029-0.402,1.596-0.762c-0.063,0.359-0.23,0.655-0.484,0.868c-0.608,0.274-1.613,0.422-2.789,0.507L37.829,28.954z
		 M25.575,29.1c0,0.486,0.189,0.762,0.547,1.143c-0.379,0.443-0.735,0.189-0.816-0.128C25.219,29.67,25.325,29.333,25.575,29.1z
		 M30.024,27.916c-0.021-0.677,0.398-1.143,1.238-1.313c-0.021-0.295-0.252-0.466-0.672-0.421l-0.105-0.275
		c0.545-0.359,0.944-0.401,1.447-0.128l-0.397-0.655l-0.043-0.425c1.553-0.23,3.338-0.019,4.218,0.341l-1.279,0.127
		c-0.148,0.253-0.271,0.655,0.315,0.781c0.25-0.19,0.671-0.297,1.237-0.231c0.545-0.148,0.965-0.401,1.322-0.721l0.546,0.465
		c0.796,0.045,1.216,0.53,1.321,1.503c-0.398,0.129-0.967-0.126-1.637-0.677c-0.23,0.316-0.379,0.677-0.357,1.079
		c-0.295,0.085-0.545-0.168-0.65-0.38c-0.21,0.509-0.252,1.183,0.042,1.82L35.75,27.98c-0.166,0.974,0.148,1.925,0.777,3.046
		c0.523,0.72,1.133,1.29,1.908,1.734c1.932,0.824,2.896,1.628,3.439,3.047c0.191,0.868,0.127,1.629-0.123,2.306l-0.44-0.464
		c0.147-1.249,0-2.094-0.44-2.52l-0.209,0.908l-1.867-2.305c-0.336,1.713,0.168,3.322,1.277,4.889
		c1.26,0.315,2.52,1.164,3.314,2.283l-0.082,0.655c0.609-0.358,1.217-0.548,1.867-0.507c0.776-0.041,1.153,0.127,1.217,0.592
		c-0.146,0.401-0.419,0.7-0.818,0.888l-0.504-0.401l-0.671,1.185c-0.735-0.993-1.49-1.564-2.204-1.712l0.086,1.142
		c-0.357-0.593-1.071-1.057-1.869-1.142c0.127,0.274,0.127,0.594,0.063,0.951c-0.418-0.719-1.046-1.144-1.846-1.226
		c0.125,0.315,0.084,0.59,0.148,0.887l-0.778-0.104c-0.271-0.953-0.733-1.525-1.656-1.397c0.168,0.338,0.294,0.824,0.272,1.291
		c-0.65,0.297-1.09,0.762-1.322,1.374l0.506,0.614c-0.57-0.021-1.05,0.189-1.365,0.636c0.231,0.231,0.378,0.465,0.482,0.74
		c-0.294,0.042-0.609,0.273-0.861,0.717c0.483,0.255,0.84,0.679,0.778,1.164c0.02,0.38,0.188,0.677,0.522,0.89
		c1.343,0.463,2.246,2.433,1.363,3.619c-1.258,1.204-2.243,2.135-2.369,2.963c-0.232,1.077-0.903,1.182-1.278,0.125
		c-0.989-1.523-0.044-1.97,0.104-2.116c0.987-1.378,1.363-2.518,0.419-3.175c0.209-0.974,0.209-1.733-0.314-1.944
		c0.273-0.361,0.127-0.806-0.377-1.271c0.125-0.866,0.377-1.587,0.92-1.988c0.318-0.528-0.291-0.677-0.857-0.021
		c-1.008,1.185-1.573,2.538-1.47,4.167c0.819,0.15,1.009,0.782,0.546,1.929c0.609,1.162,0.127,1.225-0.377,1.332l-0.377,2.896
		c-0.273-0.251-0.59-0.423-0.945-0.506l-0.021,2.495c0,0.594,0.377,0.933,0.986,1.164c1.385-0.508,2.352-0.191,2.77,0.529
		c-0.021,0.507-0.482,0.635-0.714,0.593c-0.272-0.34-0.335-0.911-0.964-0.973c0.23,0.253,0.44,0.633,0.42,1.035
		c-0.273,0.401-1.051,0.656-1.615,0.55c-0.17-0.359-0.461-0.506-0.924-0.464c-0.337,0.126-0.754-0.148-0.775-0.467
		c-0.021-0.401-0.631-0.467-1.155-0.423c-0.63-0.022-0.69-0.869-0.315-0.995c0.253-0.169,0.693-0.147,0.734-0.463
		c-0.146-0.341-0.669-0.087-0.691-0.319c-0.084-0.317-0.084-0.719,0-0.994c0.188-0.064,0.44-0.401,0-0.593l-0.084-0.486
		c0.21-0.106,0.482,0,0.587-0.318c0.063-0.399-0.461-0.126-0.712-0.189l-0.063-0.294c0.209-0.659,0.25-0.995-0.211-1.166
		c0.146-1.292,0.942-1.903,1.846-1.882c0.503-0.34,0.943-0.74,1.258-1.227l-0.858-0.212c-0.21,0.424-0.481,0.698-0.903,0.867
		c-0.377-0.169-0.859-0.297-1.488-0.338c-0.273-0.931-0.883-1.715-1.785-2.413c0.17-0.444,0.105-1.142-0.272-2.032
		c0.483-0.592,0.651-1.206,0.735-1.967l0.168-1.016c0.607,0.297,1.07-0.464,0.649-0.932c0.021-0.591,0.462-1.479,0.925-1.987
		c1.131-0.931,1.74-2.179,1.385-3.109c-0.336-0.552-0.422-0.615-0.525-0.91c-0.084-0.486-0.483-0.953-0.922-0.614
		c-0.4,0.318-0.717,0.318-1.009,0.086c-0.105-0.572,0.253-0.529,0.546-0.656c0.463,0.127,0.672-0.169,0.504-0.401
		c-0.295-0.339-0.715-0.446-1.218-0.171c-0.546,0.192-0.776,0.551-0.69,1.143c-0.148,0.635,0.396,0.889,0.649,0.827
		c0.462,0.231,0.63,0.802,0.63,1.501c-0.064,0.569-0.316,1.078-0.82,1.587c-0.9,0.106-1.027-0.107-0.418-0.549
		c0.756-0.932,1.07-1.692,0.271-2.117c-0.9-1.163-0.9-1.904-0.209-2.435l0.986-0.508c0.523-0.315,0.523-0.909-0.127-0.865
		c-0.336-0.044-0.672,0-1.008,0.127c-0.649,0.337-0.649-0.171-0.23-0.423l0.902-0.444c0.315-0.297,0.293-0.72-0.124-1.208
		c-0.294-0.993-0.358-1.819,0.104-2.307c0.46-0.483,0.713-0.483,1.26-0.125c0.125,0.296,0.145,0.974-0.318,0.612
		c-0.123-0.527-0.502-0.527-0.752-0.041c-0.022,0.953,0.375,2.138,1.133,3.637l1.572,3.535c0.462,0.824,0.525,2.093,0.086,4.083
		c-0.232,0.529-0.168,1.186,0.229,2.116c0.126,0.824,0.065,1.987-0.314,2.031c-0.314,0.062-0.42-0.531-0.314-1.186
		c0.357-0.53,0.293-0.846-0.273-0.951c-0.608,0.041-0.88,0.442-1.047,1.013c-0.023,0.297-0.254,0.553-0.674,0.827
		c-0.461,0.443-0.756,1.122-0.816,2.179c0.061,0.91,0.397,1.715,1.217,2.433c1.236,0.571,2.39,0.486,3-0.381
		c0.797-1.121,1.278-2.306,1.658-3.446c0.188-1.46,0.061-2.793-0.148-4.127c-0.253-1.162,0.314-1.732,1.28-2.011l-0.966-0.72
		c-0.67,0.762-1.658,0.571-1.762-0.041c0.148-0.358,0.398-0.486,0.734-0.339c0.398,0.317,0.775,0.086,0.754-0.442
		c0.127-0.487,0.168-0.934,0.107-1.355c-0.213-0.572-0.295-1.101-0.213-1.608l0.273-0.169c0.694,1.186,0.967,2.012,0.652,2.308
		c-0.211,0.677,0.169,0.677,0.544,0.547c0.376-0.676,0.274-1.564-0.314-2.58c-0.628-0.824-0.776-1.691-0.649-2.559
		c-0.043-1.313-0.02-1.778-0.903-1.672c0.021-0.635-0.21-1.501-0.901-0.57C30.842,27.894,30.465,27.83,30.024,27.916z
		 M31.704,23.958c2.6-0.169,4.657,0,5.621,0.679c1.974,0.105,3.191-0.044,2.811,2.473c-0.544,0.255-0.669,0.489-1.762,0.403
		c-0.355,0.295-0.732,0.34-0.566,0.867c2.141-0.38,2.729-1.077,3.84-1.734c0.715,3.936-2.537,2.687-3.902,3.066v0.613
		c0.756-0.021,1.615-0.169,2.58-0.442c1.742,0.316,1.196,1.753,1.471,2.708l-1.428-0.362l0.082,0.74l0.589,0.551
		c0.421-0.398,0.86-0.698,1.446-0.739c1.324-1.163,2.12-2.305,2.142-3.405c0.104-1.355,1.845-1.714,2.644-0.592
		c1.449,0.19,1.993,0.95,0.984,2.665c0.129,0.213,0.211,0.549,0.211,0.931c0.295-0.317,0.776-0.465,1.283-0.382
		c-0.151-0.57-0.107-1.121,0.037-1.565c-0.164-0.57-0.229-1.185-0.018-1.776c-1.385-0.848-0.358-2.073,0.65-1.459l1.32,0.146
		c1.615-0.274,2.226,0.403,1.344,1.355c0.146,0.549,0.127,0.994,0.041,1.587c0.146,0.549,0.127,0.992,0.023,1.584
		c2.495,0.087,2.579,2.669-0.064,3.598l1.194,21.347l-3.355,3.303l-3.337-3.661l1.805-21.116c-1.07-0.549-1.761-1.372-2.097-2.388
		c-0.253,1.818-0.821,3.108-2.14,3.322c-0.273,1.056-1.156,1.48-2.394,1.501l-0.421,1.059c0.926,0.4,1.531,0.952,1.87,1.671
		c0.985-0.909,3.104-0.952,3.314,0.549c0.084,1.524-0.925,2.688-2.771,2.772c-0.565,0.274-1.217,0.083-1.866-0.571
		c-0.548-0.021-1.323-0.105-2.183-0.212c-0.777,0.145-1.658,0.062-2.498,0.021c-0.251,0.506-0.627,1.015-1.09,1.522
		c-0.379,0.909-0.819,1.354-1.279,1.566c-0.063,0.654,0.166,1.12,0.816,0.823c0.377-0.507,0.779-0.739,1.198-0.654
		c0.481-0.783,1.321-0.933,2.433-0.635c1.469,0.084,2.519,0.74,2.875,2.2c0.188,0.53,0.02,1.015-0.272,1.482l-1.28,1.65
		c-0.44,1.1-0.085,1.478,1.05,1.183c1.929-0.487,3.375-0.425,3.69,0.91c0.232,0.867-0.147,1.735-1.111,2.646
		c-0.733,0.02-1.342-0.129-1.848-0.363l-4.445-0.082c-1.68,0.189-2.497-0.129-2.959-0.932c-0.859,1.779-1.975,2.284-3.883,1.103
		l-0.336,0.336v1.077c-0.041,0.468,0.189,0.594,0.736,0.382c1.531-0.548,2.748-0.423,2.349,1.121
		c-0.127,0.659-0.503,1.06-1.132,1.271c-0.735,0.275-1.553,0.508-2.414,0.57c-0.418-0.398-0.965-0.549-1.699-0.398
		c-0.336,0.124-0.859,0-0.924-0.469c-0.167-0.295-0.44-0.486-0.859-0.529c-0.987-0.381-1.342-1.079-1.069-2.074
		c-0.043-0.676-0.19-1.332-0.44-1.968c-0.293-0.823-0.254-1.606,0.126-2.346l0.502-1.927c-0.841-0.803-1.468-1.732-1.951-2.728
		c-0.798-0.996-1.028-2.098-1.007-3.173c0.523-0.276,0.736-0.827,0.588-1.609c0.168-1.036,0.546-1.754,1.111-1.819
		c0.357-0.762,0.777-1.481,1.344-1.946l1.677-1.841c0.253-0.443,0.126-1.29-0.628-0.425l-0.859,1.757
		c-0.756,0.867-1.555,0.849-2.455-0.083c-0.441-0.827-0.314-1.546,0.294-1.674c0.334,0.088,0.712-0.485,0.563-0.865
		c-0.604-0.552-0.984-1.334-0.898-2.348c-0.379-0.934-0.379-1.799-0.086-2.518c-0.84-1.501-0.588-2.708,0.755-3.641
		c0.925-0.93,1.806-1.205,2.56-0.739c0.65,0.442,0.734,1.121,0.231,2.327c-0.399,0.063-0.481,0.698,0,0.93l0.587,1.248l0.758,3.363
		c0.188,0.68,0.46,1.06,0.731,1.185c0.063-0.803-0.063-1.712-0.459-2.475c-0.272-0.761-0.419-1.501-0.44-2.198
		c-0.232-0.91-0.295-1.78-0.232-2.624c-0.148-2.012-0.148-3.385,0.588-3.281C29.982,24.002,30.59,23.515,31.704,23.958z"/>
	<path fill-rule="evenodd" clip-rule="evenodd" fill="#9FA274" d="M34.494,28.128c0.314-0.615,0.397-1.122-0.253-1.567
		c0.505-0.636,0.169-0.994-0.65-0.677c-0.629,0.063-0.796,0.19-1.049,0.762c-0.189,0.804-0.189,1.628-0.041,2.392
		c0.377,0.761,0.837,1.184,1.404,1.248c0.65,0.168,1.008,1.099,1.219,2.792l-0.021,0.909c-0.672-0.803-1.07-1.586-1.363-2.351
		c-0.189-0.377-0.358-0.695-0.841-0.273c0.084,0.679,0.315,1.143,0.651,1.459c0.588,0.677,0.86,1.418,1.069,2.16
		c0.565,0.211,0.587,0.698,0.043,1.162c-0.462,0-0.714,0.19-1.071,0.297c0.168,0.168,0.502,0.57,0.944,0.51
		c0.526-0.234,0.987-0.594,1.468-1.08c0.567-0.783,0.609-2.094,0.127-3.914c0.02-0.594-0.209-1.206-0.355-1.757
		c-0.189-0.569-0.737-0.824-1.594-0.721c-0.213,0.191-0.904-0.062-0.8-0.928c0.483-0.106-0.167-0.911,0.21-1.187
		c0.523,0.148,0.756,0.509,0.59,0.803L34.494,28.128z"/>
	<path fill-rule="evenodd" clip-rule="evenodd" fill="#9FA274" d="M35.249,37.396c-0.796,0.274-1.24,0.907-1.135,2.155
		c0.273,0.633,0.463,1.29,0.485,1.967c0.313,0.423,0.649,0.657,1.007,0.785v-0.805c0.273-0.467,0.273-0.954,0.041-1.375
		c-0.148-0.256-0.17-0.551-0.209-0.805c-0.021-0.252-0.148-0.551-0.107-0.804l0.254-0.613L35.249,37.396z"/>
	<path fill-rule="evenodd" clip-rule="evenodd" fill="#9FA274" d="M35.94,36.59l0.105,1.014c-0.021,0.826,0.21,1.463,0.736,1.947
		c0.334,0.105,0.607,0.105,0.859,0c0.545,0.254,0.818,0.528,0.9,0.869h1.071c0.146,0.358,0.608,0.633,1.405,0.865
		c0.294,0.044,0.398-0.381,0.167-0.612c-0.481-0.383-0.88-0.806-1.112-1.205c-0.02-0.277-0.293-0.531-0.733-0.679l-0.503,0.636
		c-0.441-0.297-0.65-0.72-0.588-1.208c-0.043-0.463-0.294-0.907-0.691-1.333l-0.295,0.786C36.969,37.29,36.402,36.928,35.94,36.59z"
		/>
	<path fill-rule="evenodd" clip-rule="evenodd" fill="#9FA274" d="M64.895,47.824c0.546-0.171,0.84,0.042,1.008,0.508
		c-0.168,0.252,0,0.72-0.504,0.805c-0.335,0.339-0.672,0.254-1.006-0.254c-0.338-0.593-0.757-0.845-1.344-0.763
		c-0.504-0.128-0.59,0.38-0.293,0.635c0.629,0.549,1.215,1.185,1.717,2.159c0.338,0.297,0.506,0.677,0.591,1.183l0.459,0.976
		c0.421,0,0.505,0.886,0.044,1.352c-0.126,0.594-0.42,0.891-0.629,0.34c-0.043-0.298-0.211-0.635-0.506-0.593
		c-0.503-0.213-0.418-0.846-0.082-1.228c0.166-0.676-0.041-1.1-0.671-1.228c-0.462-0.593-1.554-0.401-1.449,0.128
		c0.358,0.297,0.548,0.699,0.755,1.27c0.254,0.634,0.168,1.353-0.482,1.206c-0.399-0.212-0.608-0.064-0.9,0.146
		c-0.443-0.401-0.778-0.272-1.261,0.298c-0.166,0.128-0.546,0.128-0.671-0.107c0.021-0.379-0.104-0.655-0.379-0.782
		c-0.02,0.424-0.398,0.847-1.07,1.184c-0.838-0.209-0.88-1.057-0.293-1.563c-0.776-0.677,0.359-0.867,0.632-0.805
		c0.668,0.023,1.321,0.149,1.928,0.466c1.722,0.423,1.219-1.564,1.219-1.564c0.127-0.763,0-1.482-0.421-2.115
		c-0.798-0.212-1.005-1.397-0.209-1.906c0.295-0.251,0.336-0.593,0.459-0.931c0.254-0.675,1.303-0.846,1.766-0.296
		c0.46,0.211,0.837,0.55,1.131,1.016L64.895,47.824z M71.483,38.622l0.715-0.214c0.355,0.826,0.441,1.566,0.25,2.286
		c-0.082,0.486-0.146,1.015-0.209,1.438c-0.063,0.572-0.127,1.292,0.254,1.863c0.878,0.338,1.551,0.189,2.055-0.403
		c1.72,1.121,0.586,3.788-0.336,3.936c-1.951,0.063-2.54-2.706-2.603-3.405c-0.188-0.995-0.126-1.924,0.127-2.772
		C72.049,40.314,71.945,39.402,71.483,38.622z M77.233,29.079c0,0.487-0.189,0.763-0.546,1.143c0.376,0.444,0.735,0.19,0.817-0.128
		C77.588,29.651,77.485,29.312,77.233,29.079z M72.426,29.269c0.17,0.572,0.254,1.207,0.232,1.926
		c-0.105,0.888-0.232,1.799-0.588,2.835c-0.19,0.527-0.272,1.058-0.294,1.628c-0.021,0.424-0.419,0.637-0.63,0.36
		c0.023-0.759,0.148-1.543,0.357-2.264c0.586-0.95,0.693-1.904,0.566-2.729c0.063-0.528,0.146-0.869-0.084-1.355L72.426,29.269z
		 M59.987,36.294l-0.105,0.656c-0.484-0.065-0.862-0.297-1.176-0.616C59.166,36.378,59.627,36.378,59.987,36.294z M60.133,33.479
		c0.648,0.128,1.07,0.529,0.754,1.078l-0.462,0.678c-0.524,0.679-0.925,0.445-1.321,0.148v-0.951l-2.246-0.105
		c-0.271-0.275-0.441-0.572-0.545-0.891l2.351,0.297l-0.188-0.486c-0.736-0.655-1.721-0.95-2.749-0.972l-0.084-0.722
		c0.293,0.108,0.585,0.021,0.901-0.337c-0.271-0.425-0.671-0.677-1.174-0.763l-0.313-0.486l2.159-0.126
		C57.698,31.278,58.684,32.505,60.133,33.479z M64.979,28.931c-0.463,0.043-0.945-0.021-1.531-0.232
		c-0.523-0.17-1.029-0.403-1.595-0.763c0.063,0.359,0.23,0.656,0.481,0.869c0.609,0.273,1.615,0.421,2.792,0.507L64.979,28.931z
		 M65.253,30.962c0.041,0.209-0.358,0.612-0.526,0.761l-1.363,0.825c-0.125-0.612-0.547-0.995-1.323-1.121
		c0.274-0.677,0.63-1.123,1.239-0.762l1.07,0.191L65.253,30.962z M72.784,27.894c0.021-0.677-0.398-1.145-1.235-1.312
		c0.02-0.297,0.25-0.465,0.669-0.421l0.104-0.277c-0.544-0.36-0.941-0.401-1.447-0.128l0.4-0.652l0.043-0.425
		c-1.553-0.233-3.338-0.021-4.219,0.338l1.28,0.127c0.146,0.256,0.272,0.655-0.315,0.785c-0.252-0.194-0.67-0.299-1.237-0.236
		c-0.546-0.146-0.964-0.401-1.322-0.72l-0.544,0.467c-0.799,0.043-1.218,0.528-1.323,1.502c0.397,0.127,0.964-0.127,1.637-0.677
		c0.23,0.317,0.376,0.677,0.356,1.078c0.293,0.085,0.547-0.167,0.65-0.381c0.211,0.509,0.252,1.183-0.041,1.821l0.818-0.826
		c0.168,0.974-0.146,1.926-0.777,3.047c-0.525,0.719-1.133,1.292-1.91,1.734c-1.931,0.824-2.895,1.629-3.439,3.047
		c-0.188,0.868-0.127,1.629,0.123,2.306l0.441-0.465c-0.146-1.248,0-2.094,0.442-2.519l0.21,0.91l1.867-2.306
		c0.336,1.715-0.168,3.322-1.279,4.887c-1.26,0.319-2.519,1.164-3.316,2.285L59.5,41.54c-0.607-0.359-1.213-0.549-1.865-0.508
		c-0.777-0.041-1.152,0.128-1.219,0.595c0.15,0.4,0.422,0.696,0.821,0.885l0.501-0.398l0.672,1.182
		c0.734-0.991,1.49-1.565,2.204-1.712l-0.084,1.143c0.356-0.594,1.071-1.058,1.866-1.143c-0.126,0.273-0.126,0.593-0.063,0.95
		c0.422-0.718,1.051-1.141,1.848-1.226c-0.127,0.319-0.086,0.591-0.148,0.891l0.777-0.107c0.273-0.951,0.733-1.524,1.659-1.396
		c-0.171,0.338-0.294,0.824-0.272,1.291c0.647,0.295,1.09,0.761,1.322,1.374l-0.507,0.615c0.567-0.024,1.05,0.189,1.365,0.634
		c-0.23,0.232-0.376,0.466-0.481,0.741c0.293,0.04,0.607,0.272,0.857,0.72c-0.481,0.253-0.838,0.677-0.775,1.163
		c-0.021,0.381-0.189,0.679-0.525,0.888c-1.342,0.464-2.244,2.433-1.363,3.619c1.258,1.204,2.245,2.135,2.373,2.96
		c0.229,1.08,0.9,1.187,1.279,0.127c0.984-1.522,0.041-1.965-0.105-2.113c-0.986-1.377-1.364-2.519-0.422-3.175
		c-0.209-0.974-0.209-1.734,0.316-1.947c-0.271-0.358-0.125-0.803,0.378-1.269c-0.126-0.868-0.378-1.588-0.923-1.989
		c-0.315-0.529,0.295-0.678,0.86-0.021c1.007,1.184,1.574,2.538,1.47,4.168c-0.818,0.146-1.008,0.783-0.545,1.925
		c-0.612,1.164-0.127,1.226,0.375,1.334l0.378,2.897c0.273-0.254,0.587-0.425,0.942-0.508l0.025,2.497
		c0,0.591-0.381,0.93-0.988,1.162c-1.386-0.508-2.35-0.189-2.768,0.53c0.018,0.508,0.479,0.634,0.711,0.592
		c0.273-0.337,0.336-0.91,0.965-0.974c-0.229,0.254-0.44,0.637-0.417,1.037c0.271,0.401,1.048,0.655,1.613,0.551
		c0.168-0.361,0.462-0.511,0.925-0.464c0.336,0.124,0.755-0.15,0.775-0.469c0.019-0.401,0.629-0.464,1.152-0.424
		c0.63-0.021,0.693-0.866,0.315-0.993c-0.25-0.168-0.692-0.148-0.733-0.464c0.148-0.341,0.671-0.085,0.692-0.319
		c0.084-0.317,0.084-0.719,0-0.995c-0.188-0.062-0.44-0.4,0-0.593l0.084-0.484c-0.21-0.107-0.481,0-0.587-0.318
		c-0.063-0.401,0.461-0.127,0.711-0.188l0.064-0.297c-0.211-0.654-0.252-0.995,0.209-1.165c-0.146-1.29-0.943-1.903-1.847-1.882
		c-0.501-0.339-0.944-0.74-1.259-1.227l0.861-0.212c0.209,0.424,0.482,0.698,0.9,0.866c0.381-0.168,0.862-0.296,1.49-0.339
		c0.273-0.931,0.883-1.713,1.783-2.412c-0.166-0.442-0.104-1.143,0.275-2.028c-0.485-0.596-0.652-1.208-0.735-1.968l-0.167-1.018
		c-0.607,0.297-1.072-0.464-0.652-0.93c-0.021-0.593-0.463-1.481-0.924-1.989c-1.133-0.929-1.741-2.178-1.384-3.108
		c0.337-0.549,0.419-0.615,0.524-0.911c0.086-0.486,0.484-0.953,0.924-0.612c0.396,0.315,0.715,0.315,1.006,0.085
		c0.105-0.573-0.25-0.53-0.545-0.657c-0.461,0.127-0.672-0.168-0.503-0.401c0.292-0.339,0.714-0.443,1.216-0.171
		c0.546,0.192,0.775,0.551,0.693,1.145c0.146,0.634-0.399,0.887-0.652,0.824c-0.459,0.233-0.629,0.803-0.629,1.502
		c0.064,0.571,0.318,1.078,0.819,1.587c0.903,0.105,1.028-0.105,0.419-0.552c-0.754-0.931-1.068-1.691-0.271-2.114
		c0.901-1.162,0.901-1.902,0.208-2.434l-0.986-0.509c-0.525-0.315-0.525-0.907,0.129-0.865c0.334-0.042,0.669,0,1.004,0.129
		c0.654,0.336,0.654-0.171,0.23-0.426l-0.9-0.445c-0.314-0.295-0.293-0.718,0.126-1.206c0.294-0.993,0.355-1.817-0.105-2.304
		c-0.462-0.487-0.714-0.487-1.259-0.128c-0.126,0.296-0.146,0.973,0.314,0.614c0.125-0.526,0.504-0.526,0.756-0.042
		c0.021,0.952-0.379,2.137-1.135,3.638l-1.573,3.533c-0.462,0.824-0.522,2.095-0.082,4.085c0.229,0.527,0.167,1.185-0.231,2.114
		c-0.127,0.824-0.063,1.987,0.313,2.032c0.315,0.063,0.421-0.531,0.315-1.187c-0.358-0.53-0.294-0.846,0.273-0.951
		c0.609,0.041,0.88,0.442,1.049,1.015c0.021,0.297,0.25,0.551,0.672,0.824c0.461,0.447,0.755,1.123,0.816,2.18
		c-0.062,0.91-0.396,1.715-1.215,2.433c-1.238,0.571-2.393,0.489-3.002-0.377c-0.797-1.124-1.279-2.31-1.658-3.451
		c-0.188-1.461-0.063-2.793,0.15-4.126c0.25-1.165-0.314-1.733-1.283-2.008l0.969-0.723c0.668,0.763,1.654,0.572,1.76-0.041
		c-0.146-0.359-0.399-0.486-0.734-0.337c-0.396,0.315-0.775,0.085-0.756-0.446c-0.125-0.487-0.168-0.931-0.105-1.354
		c0.213-0.57,0.293-1.099,0.213-1.608l-0.275-0.168c-0.69,1.186-0.963,2.009-0.649,2.304c0.209,0.681-0.167,0.681-0.546,0.551
		c-0.377-0.677-0.273-1.563,0.314-2.581c0.631-0.824,0.779-1.693,0.649-2.559c0.044-1.312,0.022-1.778,0.905-1.672
		c-0.021-0.634,0.209-1.503,0.9-0.572C71.965,27.874,72.344,27.808,72.784,27.894z M54.362,32.358c0-0.38,0.084-0.722,0.208-0.931
		c-1.005-1.715-0.458-2.474,0.988-2.667c0.796-1.12,2.538-0.76,2.644,0.594c0.02,1.1,0.817,2.242,2.14,3.406
		c0.589,0.044,1.03,0.339,1.448,0.738l0.587-0.547l0.083-0.741l-1.426,0.359c0.273-0.952-0.271-2.39,1.469-2.708
		c0.966,0.274,1.826,0.424,2.582,0.442v-0.611c-1.364-0.381-4.616,0.867-3.904-3.069c1.113,0.657,1.699,1.356,3.842,1.737
		c0.166-0.531-0.211-0.574-0.568-0.867c-1.09,0.082-1.215-0.15-1.762-0.402c-0.377-2.518,0.838-2.37,2.812-2.477
		c0.967-0.678,3.021-0.847,5.622-0.678c1.113-0.443,1.723,0.042,1.995,1.397c0.731-0.105,0.731,1.268,0.585,3.278
		c0.064,0.848,0,1.713-0.229,2.625c-0.021,0.698-0.167,1.437-0.44,2.198c-0.396,0.763-0.525,1.672-0.463,2.478
		c0.275-0.128,0.548-0.509,0.736-1.186l0.754-3.365l0.588-1.248c0.482-0.231,0.399-0.867,0-0.929
		c-0.504-1.206-0.418-1.883,0.231-2.328c0.755-0.467,1.638-0.191,2.56,0.741c1.342,0.93,1.596,2.135,0.755,3.639
		c0.293,0.719,0.293,1.584-0.084,2.517c0.084,1.016-0.292,1.801-0.903,2.35c-0.146,0.381,0.232,0.951,0.568,0.867
		c0.608,0.128,0.736,0.845,0.294,1.671c-0.903,0.931-1.699,0.953-2.454,0.086l-0.861-1.757c-0.756-0.867-0.883-0.021-0.631,0.425
		l1.68,1.838c0.567,0.468,0.985,1.187,1.342,1.946c0.568,0.063,0.946,0.782,1.114,1.819c-0.148,0.782,0.063,1.333,0.587,1.608
		c0.02,1.079-0.211,2.18-1.005,3.173c-0.485,0.996-1.115,1.926-1.952,2.73l0.503,1.922c0.376,0.743,0.418,1.524,0.126,2.351
		c-0.253,0.635-0.4,1.29-0.441,1.967c0.272,0.995-0.084,1.694-1.07,2.075c-0.42,0.044-0.693,0.234-0.861,0.527
		c-0.063,0.468-0.587,0.594-0.923,0.468c-0.731-0.149-1.279,0-1.699,0.401c-0.86-0.064-1.678-0.297-2.413-0.572
		c-0.63-0.213-1.006-0.612-1.133-1.271c-0.398-1.543,0.817-1.669,2.349-1.119c0.546,0.211,0.778,0.083,0.735-0.382V55.8l-0.336-0.34
		c-1.908,1.185-3.02,0.679-3.882-1.1c-0.46,0.804-1.278,1.124-2.958,0.932l-4.447,0.083c-0.503,0.234-1.111,0.384-1.848,0.361
		c-0.963-0.911-1.342-1.779-1.109-2.646c0.313-1.33,1.76-1.396,3.692-0.909c1.132,0.297,1.489-0.085,1.05-1.185l-1.281-1.648
		c-0.293-0.466-0.461-0.953-0.273-1.482c0.357-1.46,1.406-2.115,2.875-2.199c1.112-0.296,1.951-0.149,2.434,0.632
		c0.42-0.081,0.816,0.149,1.197,0.658c0.649,0.295,0.881-0.169,0.817-0.824c-0.462-0.214-0.903-0.656-1.28-1.567
		c-0.46-0.509-0.84-1.017-1.094-1.522c-0.837,0.041-1.717,0.126-2.494-0.021c-0.859,0.105-1.638,0.19-2.182,0.212
		c-0.652,0.655-1.301,0.846-1.869,0.57c-1.848-0.084-2.852-1.248-2.768-2.771c0.21-1.502,2.328-1.459,3.315-0.549
		c0.334-0.72,0.944-1.271,1.865-1.674l-0.419-1.055c-1.238-0.022-2.117-0.444-2.391-1.504c-1.324-0.213-1.89-1.503-2.14-3.319
		L54.362,32.358z"/>
	<path fill-rule="evenodd" clip-rule="evenodd" fill="#9FA274" d="M68.316,28.104c-0.313-0.61-0.399-1.119,0.251-1.563
		c-0.504-0.635-0.169-0.994,0.648-0.677c0.632,0.065,0.799,0.191,1.051,0.76c0.191,0.805,0.191,1.631,0.042,2.392
		c-0.377,0.764-0.839,1.185-1.407,1.249c-0.648,0.168-1.004,1.099-1.217,2.792l0.023,0.911c0.671-0.804,1.068-1.588,1.361-2.35
		c0.191-0.38,0.359-0.698,0.841-0.274c-0.085,0.677-0.313,1.142-0.649,1.461c-0.589,0.675-0.862,1.416-1.07,2.158
		c-0.566,0.21-0.588,0.696-0.042,1.162c0.461,0,0.712,0.19,1.067,0.295c-0.166,0.171-0.502,0.57-0.942,0.509
		c-0.524-0.233-0.985-0.594-1.467-1.079c-0.567-0.783-0.608-2.095-0.127-3.913c-0.021-0.593,0.208-1.207,0.355-1.756
		c0.188-0.572,0.735-0.826,1.595-0.72c0.211,0.19,0.902-0.064,0.799-0.931c-0.485-0.106,0.168-0.911-0.213-1.187
		c-0.523,0.15-0.752,0.509-0.586,0.802L68.316,28.104z"/>
	<path fill-rule="evenodd" clip-rule="evenodd" fill="#9FA274" d="M67.561,37.372c0.796,0.277,1.235,0.912,1.131,2.158
		c-0.272,0.635-0.46,1.291-0.481,1.969c-0.313,0.423-0.649,0.654-1.007,0.782v-0.804c-0.272-0.465-0.272-0.952-0.043-1.375
		c0.146-0.254,0.168-0.55,0.211-0.805c0.021-0.254,0.148-0.551,0.104-0.804l-0.25-0.614L67.561,37.372z"/>
	<path fill-rule="evenodd" clip-rule="evenodd" fill="#9FA274" d="M66.867,36.569l-0.104,1.015c0.022,0.824-0.208,1.46-0.734,1.946
		c-0.337,0.105-0.608,0.105-0.86,0c-0.548,0.256-0.817,0.53-0.903,0.869h-1.07c-0.145,0.357-0.605,0.633-1.404,0.868
		c-0.295,0.04-0.398-0.383-0.168-0.614c0.481-0.383,0.881-0.805,1.113-1.206c0.021-0.276,0.293-0.528,0.733-0.679l0.503,0.637
		c0.439-0.297,0.648-0.721,0.588-1.208c0.041-0.465,0.293-0.907,0.694-1.331l0.291,0.783C65.84,37.265,66.408,36.907,66.867,36.569z
		"/>
	<path fill-rule="evenodd" clip-rule="evenodd" fill="#9FA274" d="M91.815,44.153c-0.297-0.021-0.526,0-0.673,0.041
		c-0.146,0.04-0.272,0.127-0.397,0.254l0.083-1.649c0.105,0.148,0.231,0.233,0.377,0.295c0.149,0.064,0.358,0.108,0.649,0.129
		l3.84,0.19c0.297,0.021,0.525,0,0.674-0.043c0.146-0.04,0.273-0.127,0.377-0.255l-0.104,2.074
		c-0.023,0.572-0.191,1.037-0.485,1.375c-0.293,0.358-0.669,0.508-1.108,0.484c-0.338,0-0.611-0.126-0.841-0.357
		c-0.253-0.232-0.44-0.594-0.608-1.056l-2.121,1.437c-0.123,0.085-0.272,0.191-0.418,0.317s-0.295,0.253-0.439,0.424l-0.023-0.466
		v-0.084c0.023-0.215,0.086-0.425,0.211-0.614c0.126-0.212,0.294-0.381,0.481-0.509l2.54-1.629c0.084,0.53,0.231,0.909,0.419,1.164
		c0.188,0.254,0.44,0.402,0.757,0.422c0.314,0,0.545-0.083,0.755-0.271c0.188-0.213,0.313-0.467,0.313-0.806
		c0.021-0.086,0.021-0.168,0-0.274c0-0.106-0.02-0.234-0.041-0.381L91.815,44.153z M90.682,37.17
		c0.125,0.106,0.251,0.19,0.398,0.234c0.146,0.063,0.377,0.063,0.67,0.063l3.841-0.214c0.293-0.021,0.503-0.062,0.649-0.105
		c0.146-0.062,0.252-0.169,0.355-0.296l0.189,3.26l-0.941,0.062c0.104-0.148,0.188-0.315,0.229-0.508
		c0.042-0.169,0.064-0.38,0.042-0.594c0-0.126-0.021-0.252-0.042-0.4c-0.041-0.147-0.063-0.318-0.104-0.484l-1.68,0.085l0.064,1.458
		l-0.86,0.04c0.086-0.06,0.146-0.167,0.17-0.273c0.02-0.127,0.02-0.339,0.02-0.654l-0.043-0.53l-2.121,0.106
		c-0.02,0.231-0.041,0.424-0.041,0.613v0.487c0.021,0.296,0.064,0.593,0.168,0.845c0.086,0.275,0.232,0.531,0.422,0.781L90.87,40.79
		L90.682,37.17z M91.205,33.575c-0.291,0.064-0.502,0.148-0.63,0.231c-0.123,0.085-0.229,0.191-0.311,0.339l-0.34-1.607
		c0.127,0.104,0.273,0.168,0.422,0.19c0.146,0.021,0.377,0,0.671-0.063l4.134-0.889l-0.104-0.467
		c-0.064-0.316-0.146-0.591-0.232-0.781c-0.105-0.19-0.212-0.34-0.357-0.425l1.029,0.085l0.881,4.189l-1.008-0.084
		c0.084-0.108,0.146-0.234,0.168-0.381c0.021-0.17,0-0.339-0.041-0.573l-0.146-0.652L91.205,33.575z M94.5,27.06
		c-0.167-0.065-0.314-0.084-0.461-0.084c-0.147,0.019-0.356,0.104-0.63,0.229l-4.51,2.224c-0.086-0.192-0.127-0.404-0.086-0.637
		c0.043-0.211,0.148-0.529,0.358-0.952l2.117-4.484l-3.23,1.608c-0.293,0.126-0.482,0.252-0.586,0.358
		c-0.104,0.106-0.169,0.232-0.212,0.401l-0.586-1.204c0.146,0.062,0.293,0.084,0.463,0.062c0.146-0.021,0.354-0.084,0.628-0.209
		l3.439-1.715c0.272-0.128,0.46-0.253,0.567-0.36c0.105-0.104,0.191-0.254,0.232-0.403l0.522,1.082l-2.476,5.161l3.064-1.522
		c0.273-0.128,0.463-0.256,0.566-0.36c0.104-0.105,0.189-0.255,0.23-0.401L94.5,27.06z M82.771,20.436
		c0.168,0,0.314-0.021,0.461-0.105c0.126-0.063,0.294-0.213,0.505-0.422l2.623-2.838c0.189-0.21,0.334-0.4,0.377-0.55
		c0.063-0.126,0.084-0.296,0.063-0.465l2.393,2.242l-0.652,0.679c-0.02-0.169-0.082-0.34-0.166-0.508
		c-0.104-0.147-0.23-0.316-0.398-0.466c-0.085-0.085-0.19-0.169-0.294-0.254c-0.125-0.084-0.272-0.169-0.421-0.274l-1.153,1.229
		l1.073,1.013l-0.59,0.636c0-0.106-0.023-0.211-0.086-0.318c-0.063-0.104-0.208-0.274-0.439-0.487l-0.377-0.359l-1.468,1.567
		c0.146,0.168,0.271,0.337,0.397,0.484c0.125,0.127,0.232,0.234,0.336,0.341c0.209,0.21,0.461,0.359,0.715,0.485
		c0.25,0.128,0.522,0.213,0.816,0.274l-1.09,0.57L82.771,20.436z M81.598,18.153c-0.171,0.252-0.275,0.442-0.315,0.59
		c-0.044,0.148-0.044,0.318,0,0.486l-1.323-0.95c0.168-0.021,0.314-0.064,0.441-0.149c0.123-0.104,0.271-0.275,0.441-0.508
		l2.202-3.173c0.167-0.254,0.271-0.444,0.313-0.592c0.043-0.149,0.043-0.295,0-0.466l1.322,0.932
		c-0.168,0.021-0.314,0.085-0.438,0.168c-0.126,0.083-0.276,0.253-0.442,0.487L81.598,18.153z M76.205,15.104
		c-0.126,0.275-0.19,0.487-0.21,0.637c0,0.146,0.02,0.315,0.105,0.465l-1.49-0.657c0.167-0.063,0.292-0.147,0.398-0.254
		c0.104-0.105,0.229-0.295,0.336-0.57l1.572-3.533c0.127-0.276,0.191-0.487,0.191-0.656c0.018-0.147-0.023-0.295-0.086-0.444
		l1.932,0.867c0.586,0.254,1.006,0.615,1.238,1.038c0.23,0.423,0.23,0.866,0.039,1.312c-0.188,0.443-0.503,0.739-0.941,0.867
		c-0.441,0.127-0.946,0.063-1.469-0.17c-0.086-0.042-0.168-0.085-0.275-0.147c-0.104-0.043-0.188-0.106-0.291-0.191
		c0.523,0.127,0.942,0.148,1.301,0.021c0.355-0.105,0.588-0.34,0.752-0.678c0.127-0.297,0.127-0.614,0-0.888
		c-0.145-0.275-0.396-0.507-0.775-0.677c-0.063-0.021-0.166-0.064-0.271-0.105c-0.107-0.021-0.23-0.063-0.358-0.085L76.205,15.104z
		 M69.174,13.033c-0.041,0.063-0.084,0.104-0.105,0.169c-0.02,0.062-0.063,0.126-0.063,0.189c-0.02,0.063-0.02,0.126,0,0.19
		c0.021,0.084,0.063,0.169,0.127,0.295l-1.344-0.379c0.127-0.044,0.254-0.128,0.38-0.234c0.124-0.106,0.271-0.273,0.439-0.484
		l2.708-3.683c0.041-0.064,0.083-0.147,0.125-0.209c0.041-0.066,0.063-0.131,0.083-0.192c0.022-0.064,0.022-0.126,0-0.192
		c-0.021-0.061-0.063-0.148-0.125-0.208l1.321,0.356l0.523,5.334c0.022,0.23,0.083,0.442,0.126,0.589
		c0.063,0.17,0.171,0.341,0.272,0.511l-1.636-0.445l0.022-0.021c0.209-0.105,0.314-0.21,0.336-0.274c0.02-0.106,0.02-0.232,0-0.424
		v-0.063l-0.148-1.481l-2.14-0.57L69.174,13.033z M70.475,11.297l1.678,0.443l-0.208-2.453L70.475,11.297z M62.944,12.651
		l-0.105-1.121c0.295,0.275,0.609,0.506,0.903,0.655c0.292,0.169,0.608,0.275,0.923,0.338c0.398,0.063,0.734,0.021,1.008-0.104
		c0.271-0.149,0.439-0.361,0.482-0.635V11.55c-0.023-0.087-0.043-0.17-0.086-0.253c-0.084-0.169-0.396-0.466-0.964-0.869
		c-0.146-0.084-0.253-0.169-0.333-0.209c-0.527-0.383-0.863-0.722-1.052-0.997c-0.168-0.273-0.231-0.592-0.168-0.908
		c0.063-0.488,0.335-0.846,0.757-1.059c0.439-0.212,0.985-0.276,1.656-0.171c0.189,0.023,0.42,0.087,0.651,0.149
		c0.209,0.064,0.459,0.131,0.731,0.234l-0.167,0.991c-0.209-0.23-0.419-0.4-0.649-0.525c-0.232-0.13-0.482-0.213-0.756-0.255
		c-0.335-0.065-0.608-0.044-0.838,0.084C64.706,7.87,64.583,8.039,64.54,8.27c-0.023,0.213,0.02,0.403,0.166,0.593
		c0.127,0.19,0.462,0.444,0.967,0.805c0.041,0.021,0.082,0.064,0.145,0.105c0.441,0.275,0.758,0.552,0.968,0.762
		c0.146,0.169,0.25,0.359,0.313,0.569c0.063,0.214,0.083,0.426,0.063,0.637c-0.085,0.507-0.376,0.91-0.902,1.187
		c-0.523,0.274-1.111,0.359-1.805,0.252c-0.23-0.042-0.462-0.105-0.712-0.189C63.489,12.907,63.217,12.779,62.944,12.651z
		 M52.788,11.38l-0.063,0.192c0,0.063-0.02,0.126-0.02,0.19c0,0.061,0.02,0.128,0.061,0.19c0.043,0.063,0.107,0.146,0.189,0.231
		l-1.385-0.021c0.105-0.083,0.209-0.19,0.318-0.318c0.082-0.147,0.188-0.338,0.291-0.569l1.741-4.233
		c0.043-0.085,0.063-0.169,0.084-0.256c0.021-0.062,0.021-0.146,0.021-0.188c0-0.084,0-0.146-0.043-0.188
		c-0.02-0.064-0.083-0.13-0.146-0.194l1.344,0.023l1.803,5.057c0.085,0.232,0.167,0.401,0.272,0.549
		c0.084,0.149,0.209,0.298,0.378,0.423l-1.7-0.021l0.022-0.02c0.168-0.171,0.23-0.297,0.252-0.361c0-0.104-0.043-0.23-0.105-0.422
		c0-0.021-0.023-0.043-0.023-0.064l-0.481-1.374l-2.202-0.042L52.788,11.38z M53.629,9.371l1.762,0.021L54.57,7.067L53.629,9.371z
		 M50.084,11.104c0,0.319,0.02,0.532,0.08,0.68c0.043,0.147,0.148,0.273,0.275,0.381h-1.639c0.127-0.107,0.231-0.233,0.273-0.381
		c0.063-0.147,0.085-0.36,0.085-0.68v-3.87c0-0.295-0.022-0.508-0.085-0.655c-0.042-0.149-0.146-0.275-0.273-0.381h1.639
		c-0.127,0.105-0.232,0.231-0.275,0.381c-0.061,0.147-0.08,0.36-0.08,0.655V11.104z M46.579,6.132
		c-0.127,0.131-0.211,0.256-0.253,0.405c-0.063,0.146-0.063,0.357-0.042,0.677l0.25,5.055c-0.208,0-0.397-0.063-0.606-0.169
		c-0.188-0.126-0.419-0.359-0.733-0.698l-3.252-3.723l0.188,3.618c0.021,0.317,0.043,0.549,0.105,0.677
		c0.063,0.147,0.148,0.254,0.295,0.358l-1.345,0.086c0.105-0.127,0.189-0.254,0.253-0.402c0.041-0.149,0.041-0.38,0.041-0.677
		l-0.21-3.871c-0.021-0.297-0.041-0.529-0.104-0.656c-0.063-0.148-0.168-0.274-0.294-0.383l1.195-0.063l3.734,4.316l-0.166-3.449
		c-0.021-0.295-0.064-0.508-0.127-0.655c-0.063-0.149-0.146-0.253-0.273-0.361L46.579,6.132z M31.764,14.026
		c0.127-0.19,0.209-0.36,0.252-0.528c0.041-0.17,0.063-0.36,0.063-0.57l-0.188-4.064V8.63c-0.021-0.084-0.021-0.128-0.043-0.188
		c0-0.088-0.042-0.147-0.084-0.213c-0.041-0.064-0.146-0.147-0.292-0.233l1.489-0.295l2.582,4.02l0.858-4.697l1.427-0.275
		c-0.084,0.104-0.125,0.191-0.146,0.296c-0.021,0.105-0.021,0.233,0,0.361c0.021,0.063,0.042,0.124,0.042,0.169
		c0.021,0.04,0.021,0.085,0.043,0.127l1.278,3.936c0.064,0.188,0.148,0.338,0.231,0.485c0.105,0.126,0.209,0.254,0.355,0.36
		l-1.572,0.316c0.082-0.104,0.146-0.232,0.188-0.338c0.02-0.128,0.02-0.254,0-0.403c0-0.041-0.021-0.062-0.021-0.083
		c0-0.021-0.021-0.043-0.021-0.064l-1.258-4.019l-1.049,5.396c-0.168-0.065-0.336-0.169-0.482-0.297
		c-0.148-0.149-0.293-0.339-0.462-0.595l-2.392-3.639l0.166,3.98c0,0.125,0.023,0.209,0.023,0.272v0.128
		c0.042,0.149,0.083,0.254,0.167,0.34c0.063,0.085,0.168,0.168,0.315,0.252L31.764,14.026z M27.528,15.824
		c-0.422,0.17-0.841,0.277-1.258,0.295c-0.441,0.022-0.843-0.018-1.196-0.167c-0.401-0.147-0.735-0.36-1.052-0.657
		C23.728,15,23.5,14.66,23.332,14.26c-0.126-0.298-0.21-0.635-0.231-0.953c-0.043-0.34,0-0.656,0.063-0.994
		c0.125-0.508,0.355-0.952,0.69-1.355c0.336-0.38,0.736-0.675,1.239-0.888c0.419-0.19,0.86-0.297,1.278-0.318
		c0.421-0.02,0.82,0.043,1.197,0.171c0.379,0.147,0.735,0.36,1.027,0.655c0.316,0.296,0.547,0.655,0.713,1.078
		c0.17,0.38,0.254,0.783,0.232,1.228c-0.02,0.444-0.105,0.867-0.293,1.291c-0.168,0.359-0.4,0.696-0.693,0.971
		C28.261,15.422,27.926,15.657,27.528,15.824z M25.366,10.641c-0.607,0.253-1.008,0.677-1.236,1.269
		c-0.213,0.593-0.189,1.208,0.082,1.861c0.293,0.678,0.714,1.144,1.301,1.418c0.566,0.275,1.154,0.297,1.742,0.043
		c0.609-0.254,1.007-0.679,1.237-1.27c0.209-0.593,0.188-1.207-0.083-1.862c-0.294-0.677-0.713-1.163-1.303-1.438
		C26.542,10.387,25.954,10.387,25.366,10.641z M18.904,21.366c0.021-0.168,0-0.314-0.042-0.463c-0.063-0.148-0.19-0.342-0.378-0.551
		l-2.519-2.921c-0.188-0.234-0.355-0.38-0.503-0.464c-0.125-0.065-0.272-0.106-0.44-0.106l2.455-2.158l0.609,0.72
		c-0.189,0-0.359,0.042-0.525,0.126c-0.168,0.085-0.336,0.192-0.503,0.339c-0.085,0.084-0.189,0.169-0.273,0.275
		c-0.104,0.127-0.21,0.253-0.335,0.402l1.111,1.27l1.092-0.974l0.564,0.656c-0.104,0-0.207,0.021-0.313,0.063
		c-0.105,0.063-0.293,0.188-0.523,0.38l-0.399,0.361l1.385,1.607c0.211-0.104,0.375-0.234,0.525-0.339
		c0.145-0.105,0.272-0.214,0.376-0.296c0.209-0.19,0.397-0.424,0.567-0.657c0.145-0.232,0.252-0.508,0.336-0.803l0.461,1.164
		L18.904,21.366z M15.944,23.504c0.254,0.168,0.443,0.254,0.611,0.296c0.146,0.041,0.293,0.021,0.462-0.021l-0.882,1.375
		c-0.021-0.168-0.084-0.317-0.191-0.443c-0.082-0.106-0.25-0.253-0.501-0.423l-3.546-2.328l-0.273,0.402
		c-0.168,0.296-0.295,0.527-0.357,0.72c-0.082,0.211-0.105,0.401-0.063,0.55l-0.651-0.783l2.308-3.574l0.652,0.76
		c-0.146,0.021-0.273,0.063-0.398,0.168c-0.125,0.086-0.23,0.234-0.357,0.426l-0.355,0.549L15.944,23.504z M13.596,27.734
		c0.292,0.106,0.502,0.171,0.648,0.171c0.17,0.022,0.316-0.022,0.463-0.105l-0.609,1.522c-0.063-0.147-0.146-0.297-0.251-0.403
		c-0.125-0.104-0.313-0.211-0.587-0.314l-3.545-1.44c-0.273-0.126-0.484-0.188-0.631-0.188c-0.168,0-0.313,0.04-0.461,0.104
		l0.607-1.502c0.064,0.146,0.146,0.275,0.252,0.38c0.105,0.106,0.316,0.211,0.588,0.339L13.596,27.734z M12.316,30.61l0.944,0.677
		c0.041,0.277,0.041,0.553,0.041,0.807c-0.02,0.254-0.041,0.485-0.084,0.72c-0.063,0.316-0.166,0.635-0.334,0.91
		c-0.148,0.297-0.316,0.571-0.546,0.803c-0.357,0.38-0.776,0.636-1.28,0.781c-0.483,0.15-1.008,0.171-1.553,0.063
		c-0.398-0.083-0.775-0.273-1.133-0.527c-0.336-0.253-0.631-0.57-0.86-0.972c-0.209-0.36-0.336-0.742-0.398-1.144
		c-0.063-0.424-0.042-0.848,0.042-1.269c0.042-0.212,0.104-0.422,0.188-0.634c0.105-0.216,0.209-0.446,0.335-0.701l0.924,0.214
		c-0.188,0.23-0.336,0.465-0.461,0.677c-0.105,0.232-0.189,0.444-0.252,0.678c-0.127,0.654-0.043,1.205,0.273,1.69
		c0.314,0.488,0.817,0.803,1.469,0.933c0.733,0.169,1.34,0.083,1.867-0.234c0.544-0.316,0.88-0.804,1.027-1.458
		c0.041-0.276,0.063-0.572,0.02-0.91C12.526,31.396,12.442,31.015,12.316,30.61z M11.1,41.697c0.061,0.044,0.125,0.064,0.188,0.086
		c0.063,0,0.127,0.021,0.189,0.021s0.125-0.021,0.189-0.043c0.084-0.042,0.146-0.106,0.25-0.19l-0.104,1.416
		c-0.063-0.124-0.17-0.25-0.295-0.337c-0.146-0.105-0.314-0.213-0.566-0.34l-4.07-1.967c-0.082-0.04-0.168-0.084-0.23-0.104
		c-0.084-0.02-0.146-0.02-0.211-0.042c-0.063,0-0.127,0.022-0.189,0.042c-0.063,0.043-0.125,0.084-0.188,0.149l0.105-1.355
		l5.057-1.544c0.23-0.084,0.418-0.149,0.566-0.256c0.147-0.084,0.294-0.21,0.44-0.358l-0.105,1.714l-0.021-0.021
		c-0.166-0.169-0.271-0.254-0.354-0.275c-0.084,0-0.232,0.021-0.4,0.084c-0.041,0-0.063,0-0.063,0.022L9.903,38.8l-0.146,2.22
		L11.1,41.697z M9.168,40.746l0.127-1.756l-2.352,0.677L9.168,40.746z M10.93,45.42c0.295,0,0.504-0.042,0.65-0.082
		c0.148-0.064,0.273-0.168,0.379-0.297l0.063,1.629c-0.126-0.126-0.253-0.212-0.399-0.274c-0.146-0.044-0.379-0.065-0.672-0.044
		l-3.818,0.126c-0.293,0.024-0.502,0.042-0.65,0.108c-0.148,0.063-0.271,0.146-0.379,0.271L6,43.624l0.924-0.043
		c-0.105,0.147-0.189,0.318-0.23,0.488c-0.043,0.19-0.063,0.379-0.043,0.614c0,0.127,0,0.251,0.02,0.401
		c0.043,0.146,0.064,0.294,0.105,0.466l1.68-0.064l-0.041-1.439l0.857-0.021c-0.083,0.063-0.146,0.169-0.166,0.275
		c-0.021,0.128-0.042,0.339-0.021,0.657l0.021,0.528L10.93,45.42z"/>
	<path fill-rule="evenodd" clip-rule="evenodd" fill="#9FA274" d="M94.31,60.473c-0.063-0.169-0.145-0.297-0.25-0.401
		c-0.126-0.104-0.315-0.211-0.589-0.338l-3.566-1.438c-0.274-0.108-0.482-0.171-0.63-0.171c-0.167,0-0.313,0.021-0.462,0.106
		l1.219-3.047l0.86,0.36c-0.147,0.082-0.296,0.21-0.399,0.361c-0.125,0.124-0.211,0.313-0.295,0.525
		c-0.041,0.106-0.082,0.234-0.125,0.382c-0.041,0.126-0.084,0.295-0.104,0.485l1.551,0.636l0.547-1.355l0.796,0.317
		c-0.105,0.043-0.188,0.107-0.273,0.192c-0.063,0.104-0.167,0.297-0.271,0.592l-0.211,0.487l1.972,0.802
		c0.127-0.188,0.209-0.379,0.295-0.527c0.083-0.171,0.167-0.317,0.208-0.445c0.105-0.273,0.191-0.569,0.211-0.846
		c0.021-0.275,0-0.572-0.063-0.867l0.922,0.824L94.31,60.473z M88.52,60.812c-0.273,0.106-0.523,0.234-0.735,0.381
		c-0.209,0.147-0.397,0.34-0.544,0.551c-0.4,0.569-0.547,1.142-0.441,1.755c0.127,0.612,0.461,1.123,1.069,1.564
		c0.61,0.446,1.219,0.635,1.847,0.53c0.609-0.084,1.154-0.444,1.596-1.058c0.084-0.126,0.188-0.297,0.273-0.465
		c0.08-0.19,0.166-0.382,0.23-0.591l-1.008-0.742c-0.252-0.171-0.439-0.275-0.588-0.319c-0.146-0.039-0.295-0.039-0.463-0.022
		l0.672-0.929l2.351,1.713c-0.166,0.36-0.314,0.7-0.483,0.977c-0.145,0.294-0.313,0.569-0.48,0.8
		c-0.23,0.34-0.484,0.616-0.756,0.829c-0.252,0.23-0.525,0.4-0.82,0.526c-0.482,0.19-0.964,0.275-1.486,0.19
		c-0.527-0.063-0.987-0.253-1.427-0.57c-0.358-0.256-0.651-0.571-0.862-0.953c-0.21-0.383-0.356-0.784-0.398-1.248
		c-0.042-0.423-0.021-0.826,0.104-1.228c0.106-0.399,0.294-0.805,0.567-1.163c0.127-0.169,0.271-0.359,0.443-0.506
		c0.164-0.192,0.354-0.383,0.585-0.573L88.52,60.812z M84.47,71.812c0.042-0.168,0.042-0.336,0-0.484
		c-0.041-0.148-0.146-0.341-0.335-0.594l-2.246-3.132c-0.189-0.232-0.335-0.4-0.462-0.485c-0.123-0.085-0.27-0.127-0.44-0.148
		l2.621-1.926l0.549,0.764c-0.168,0-0.357,0.018-0.523,0.083c-0.172,0.064-0.359,0.148-0.526,0.297
		c-0.104,0.063-0.21,0.148-0.314,0.253c-0.104,0.107-0.212,0.211-0.335,0.36l0.986,1.352l1.175-0.846l0.501,0.701
		c-0.104-0.021-0.207-0.021-0.335,0.021c-0.104,0.04-0.293,0.147-0.543,0.338l-0.421,0.318l1.238,1.731
		c0.207-0.104,0.379-0.21,0.543-0.295c0.148-0.104,0.295-0.19,0.401-0.252c0.25-0.192,0.438-0.383,0.605-0.617
		c0.19-0.23,0.317-0.484,0.423-0.781l0.355,1.206L84.47,71.812z M78.514,74.986c0.061-0.169,0.082-0.315,0.082-0.465
		c-0.021-0.169-0.082-0.381-0.189-0.654l-1.574-3.536c-0.125-0.275-0.229-0.463-0.336-0.569c-0.103-0.105-0.25-0.19-0.396-0.254
		l1.488-0.658c-0.084,0.149-0.104,0.321-0.104,0.468c0.02,0.147,0.086,0.358,0.209,0.634l1.658,3.788
		c0.229-0.064,0.44-0.106,0.607-0.169c0.168-0.063,0.314-0.128,0.441-0.171c0.271-0.126,0.525-0.275,0.734-0.465
		c0.21-0.19,0.397-0.401,0.564-0.677l0.086,1.249L78.514,74.986z M72.153,77.06c0.086-0.128,0.148-0.276,0.148-0.442
		c0.02-0.15-0.021-0.384-0.104-0.658l-1.051-3.723c-0.084-0.296-0.168-0.488-0.25-0.614c-0.107-0.128-0.211-0.234-0.379-0.295
		l1.572-0.467c-0.104,0.148-0.146,0.297-0.166,0.446c0,0.169,0.041,0.378,0.125,0.675l1.133,3.999
		c0.229-0.044,0.42-0.063,0.609-0.104c0.189-0.045,0.334-0.066,0.463-0.106c0.293-0.086,0.543-0.213,0.796-0.36
		c0.231-0.148,0.44-0.339,0.649-0.569l-0.082,1.226L72.153,77.06z M65.965,78.393c-0.442,0.063-0.882,0.041-1.301-0.043
		c-0.42-0.104-0.777-0.275-1.091-0.507c-0.335-0.255-0.608-0.549-0.817-0.911c-0.211-0.379-0.338-0.76-0.4-1.183
		c-0.041-0.34-0.021-0.679,0.041-0.995c0.063-0.339,0.191-0.636,0.338-0.933c0.271-0.465,0.607-0.824,1.026-1.119
		c0.442-0.275,0.903-0.445,1.448-0.51c0.463-0.063,0.902-0.04,1.301,0.064c0.421,0.086,0.777,0.254,1.113,0.486
		c0.336,0.254,0.608,0.549,0.816,0.931c0.211,0.359,0.336,0.763,0.4,1.228c0.04,0.401,0,0.826-0.127,1.249
		c-0.146,0.402-0.356,0.781-0.629,1.144c-0.273,0.294-0.588,0.549-0.945,0.738C66.785,78.222,66.385,78.35,65.965,78.393z
		 M65.314,72.807c-0.649,0.086-1.176,0.381-1.531,0.89c-0.377,0.507-0.522,1.099-0.419,1.82c0.084,0.717,0.356,1.288,0.84,1.712
		c0.482,0.444,1.025,0.614,1.658,0.529c0.67-0.085,1.173-0.36,1.551-0.87c0.357-0.506,0.504-1.118,0.418-1.817
		c-0.082-0.74-0.377-1.312-0.858-1.732C66.491,72.914,65.944,72.744,65.314,72.807z M59.963,77.758l-0.418,1.08
		c-0.273,0.106-0.546,0.168-0.798,0.231c-0.229,0.043-0.46,0.063-0.692,0.063c-0.336,0.021-0.651-0.02-0.966-0.105
		c-0.313-0.082-0.606-0.188-0.901-0.36c-0.442-0.252-0.798-0.613-1.048-1.078c-0.253-0.466-0.38-0.971-0.399-1.546
		c0-0.398,0.084-0.822,0.25-1.226c0.168-0.38,0.421-0.741,0.755-1.058c0.294-0.274,0.63-0.507,1.009-0.655
		c0.397-0.149,0.797-0.234,1.238-0.234c0.209,0,0.418,0,0.65,0.044c0.229,0.041,0.481,0.084,0.754,0.169v0.951
		c-0.272-0.127-0.524-0.23-0.754-0.295c-0.252-0.064-0.482-0.106-0.715-0.106c-0.649,0.021-1.174,0.234-1.574,0.657
		c-0.396,0.421-0.587,0.972-0.565,1.647c0,0.764,0.231,1.357,0.649,1.821c0.42,0.444,0.966,0.656,1.637,0.656
		c0.273,0,0.568-0.064,0.882-0.169C59.272,78.139,59.608,77.968,59.963,77.758z M48.991,73.292
		c-0.125,0.106-0.209,0.234-0.271,0.382c-0.064,0.147-0.086,0.359-0.105,0.656l-0.168,5.077c-0.209-0.021-0.398-0.104-0.588-0.233
		c-0.188-0.126-0.397-0.38-0.67-0.76l-2.938-3.999l-0.126,3.638c0,0.318,0.02,0.528,0.063,0.678c0.041,0.147,0.125,0.275,0.25,0.382
		l-1.341-0.043c0.125-0.104,0.209-0.231,0.271-0.38c0.064-0.149,0.105-0.36,0.105-0.657l0.146-3.873c0-0.293-0.02-0.527-0.064-0.675
		c-0.061-0.146-0.146-0.274-0.25-0.381l1.196,0.042l3.356,4.612l0.105-3.449c0.02-0.297,0-0.53-0.044-0.655
		c-0.062-0.147-0.146-0.297-0.271-0.401L48.991,73.292z M36.842,78.56c-0.462-0.061-0.859-0.21-1.236-0.401
		c-0.381-0.21-0.693-0.464-0.944-0.761c-0.25-0.338-0.44-0.697-0.548-1.102c-0.105-0.42-0.143-0.824-0.082-1.245
		c0.041-0.341,0.148-0.657,0.293-0.954c0.147-0.294,0.337-0.57,0.566-0.805c0.377-0.379,0.797-0.655,1.28-0.803
		c0.481-0.169,0.985-0.212,1.531-0.128c0.439,0.065,0.86,0.193,1.239,0.382c0.377,0.211,0.69,0.467,0.943,0.783
		c0.25,0.316,0.439,0.698,0.545,1.1c0.105,0.402,0.127,0.846,0.064,1.292c-0.045,0.402-0.189,0.803-0.441,1.163
		c-0.231,0.379-0.526,0.697-0.902,0.951c-0.336,0.232-0.691,0.382-1.091,0.487C37.682,78.604,37.262,78.626,36.842,78.56z
		 M37.641,72.998c-0.652-0.104-1.22,0.041-1.701,0.444c-0.502,0.38-0.797,0.931-0.879,1.629c-0.107,0.739,0.02,1.356,0.377,1.905
		c0.357,0.527,0.838,0.845,1.467,0.931c0.652,0.106,1.218-0.045,1.699-0.446c0.506-0.4,0.797-0.952,0.882-1.65
		c0.105-0.718-0.02-1.353-0.376-1.881C38.75,73.399,38.268,73.083,37.641,72.998z M29.584,75.75
		c-0.084,0.293-0.129,0.507-0.129,0.653c0,0.171,0.045,0.318,0.129,0.467l-1.533-0.509c0.147-0.064,0.272-0.171,0.379-0.295
		c0.083-0.106,0.188-0.316,0.271-0.615l1.303-4.04l-0.44-0.147c-0.314-0.105-0.59-0.17-0.799-0.191
		c-0.209,0-0.397,0.021-0.546,0.086l0.589-0.848l4.028,1.334l-0.565,0.824c-0.043-0.125-0.127-0.231-0.254-0.338
		c-0.125-0.084-0.293-0.17-0.502-0.232l-0.629-0.213L29.584,75.75z M19.596,72.533c-0.23-0.212-0.379-0.446-0.42-0.698
		c-0.063-0.254-0.043-0.635,0.084-1.145l0.775-3.553c0.065-0.297,0.085-0.55,0.106-0.763c0-0.232,0-0.421-0.041-0.611l1.069,0.632
		c-0.043,0.065-0.064,0.129-0.105,0.214c-0.02,0.084-0.041,0.172-0.064,0.275l-1.027,4.548l2.852-2.666
		c0.131-0.104,0.232-0.19,0.297-0.275c0.063-0.063,0.104-0.126,0.146-0.19c0.042-0.083,0.063-0.168,0.063-0.273
		c0-0.087,0-0.234-0.044-0.4l1.051,0.61l-0.063,0.105c-0.127,0.214-0.232,0.489-0.295,0.847c-0.021,0.044-0.021,0.085-0.041,0.105
		l-0.883,3.916l2.75-2.54c0.104-0.084,0.211-0.191,0.291-0.274c0.086-0.106,0.148-0.191,0.191-0.255
		c0.041-0.086,0.082-0.212,0.082-0.318c0-0.126-0.02-0.272-0.061-0.442l1.152,0.675l-4.781,4.275
		c-0.211-0.19-0.359-0.401-0.422-0.677c-0.063-0.255-0.041-0.571,0.041-0.931l0.717-3.323L19.596,72.533z M12.86,66.46
		c0.168,0,0.316-0.021,0.463-0.086c0.148-0.04,0.314-0.188,0.546-0.38l2.771-2.643c0.229-0.213,0.378-0.383,0.44-0.509
		c0.063-0.146,0.104-0.297,0.083-0.464l2.225,2.389l-0.692,0.635c0-0.169-0.064-0.36-0.127-0.51
		c-0.084-0.167-0.21-0.338-0.356-0.506c-0.082-0.086-0.188-0.17-0.293-0.276c-0.105-0.081-0.252-0.189-0.4-0.295l-1.217,1.141
		l0.986,1.081l-0.629,0.593c0.021-0.106-0.02-0.211-0.063-0.318c-0.064-0.104-0.189-0.274-0.398-0.506l-0.357-0.403l-1.553,1.459
		c0.127,0.189,0.252,0.358,0.357,0.508c0.127,0.147,0.23,0.275,0.314,0.38c0.21,0.214,0.419,0.401,0.671,0.531
		c0.231,0.147,0.483,0.253,0.798,0.338l-1.112,0.485L12.86,66.46z M16.073,60.854c-0.148-0.042-0.316-0.063-0.463-0.042
		c-0.147,0.042-0.356,0.106-0.607,0.255l-4.344,2.537c-0.106-0.19-0.147-0.4-0.126-0.635c0.02-0.21,0.105-0.551,0.271-0.974
		l1.825-4.591l-3.125,1.819c-0.273,0.151-0.44,0.278-0.545,0.402c-0.105,0.107-0.168,0.255-0.188,0.422l-0.673-1.184
		c0.146,0.064,0.316,0.064,0.461,0.044c0.148-0.021,0.357-0.107,0.609-0.255l3.336-1.948c0.252-0.146,0.439-0.274,0.523-0.4
		c0.105-0.126,0.17-0.254,0.189-0.423l0.608,1.057l-2.097,5.29l2.959-1.714c0.25-0.147,0.439-0.274,0.523-0.401
		c0.104-0.104,0.167-0.253,0.188-0.425L16.073,60.854z"/>
	<ellipse fill-rule="evenodd" clip-rule="evenodd" fill="#9FA274" cx="9.033" cy="51.861" rx="0.702" ry="0.708"/>
	<circle fill-rule="evenodd" clip-rule="evenodd" fill="#9FA274" cx="93.041" cy="51.861" r="0.708"/>
	<path fill="#1F2615" d="M120.972,31.354l10.046,12.73v-8.821c0-1.232-0.177-2.064-0.525-2.497c-0.48-0.586-1.285-0.868-2.414-0.848
		v-0.564h6.73v0.564c-0.862,0.111-1.441,0.254-1.735,0.431c-0.298,0.176-0.526,0.463-0.692,0.862
		c-0.164,0.398-0.249,1.083-0.249,2.052v17.082h-0.513l-13.77-17.108v13.07c0,1.179,0.268,1.977,0.803,2.392
		c0.535,0.414,1.146,0.62,1.836,0.62h0.48v0.563h-7.223v-0.563c1.121-0.01,1.9-0.241,2.344-0.696
		c0.439-0.455,0.659-1.227,0.659-2.315V33.812l-0.429-0.535c-0.432-0.544-0.812-0.901-1.143-1.071
		c-0.33-0.171-0.804-0.269-1.424-0.287v-0.564H120.972z"/>
	<path fill="none" stroke="#1F2615" stroke-width="0.0639" d="M120.972,31.354l10.046,12.73v-8.821c0-1.232-0.177-2.064-0.525-2.497
		c-0.48-0.586-1.285-0.868-2.414-0.848v-0.564h6.73v0.564c-0.862,0.111-1.441,0.254-1.735,0.431
		c-0.298,0.176-0.526,0.463-0.692,0.862c-0.164,0.398-0.249,1.083-0.249,2.052v17.082h-0.513l-13.77-17.108v13.07
		c0,1.179,0.268,1.977,0.803,2.392c0.535,0.414,1.146,0.62,1.836,0.62h0.48v0.563h-7.223v-0.563c1.121-0.01,1.9-0.241,2.344-0.696
		c0.439-0.455,0.659-1.227,0.659-2.315V33.812l-0.429-0.535c-0.432-0.544-0.812-0.901-1.143-1.071
		c-0.33-0.171-0.804-0.269-1.424-0.287v-0.564H120.972z"/>
	<path fill="#1F2615" d="M143.883,32.53v8.359h0.408c1.298,0,2.24-0.407,2.824-1.227c0.584-0.818,0.957-2.027,1.119-3.623h0.557
		v10.76h-0.557c-0.122-1.169-0.377-2.128-0.764-2.874c-0.389-0.746-0.839-1.249-1.352-1.507c-0.514-0.257-1.259-0.386-2.236-0.386
		v5.773c0,1.131,0.048,1.821,0.144,2.072c0.095,0.251,0.272,0.46,0.532,0.619c0.261,0.161,0.684,0.243,1.264,0.243h1.219
		c1.905,0,3.432-0.443,4.58-1.327c1.148-0.888,1.972-2.238,2.474-4.053h0.558l-0.916,6.521h-17.619v-0.563h0.678
		c0.591,0,1.066-0.104,1.428-0.316c0.262-0.142,0.463-0.384,0.603-0.726c0.11-0.242,0.166-0.877,0.166-1.903v-13.51
		c0-0.927-0.026-1.496-0.075-1.707c-0.101-0.353-0.287-0.624-0.559-0.814c-0.379-0.282-0.9-0.424-1.563-0.424h-0.678v-0.564h17.059
		v6.06h-0.559c-0.291-1.481-0.699-2.544-1.227-3.189c-0.525-0.646-1.27-1.12-2.232-1.421c-0.561-0.182-1.613-0.273-3.158-0.273
		H143.883z"/>
	<path fill="none" stroke="#1F2615" stroke-width="0.0639" d="M143.883,32.53v8.359h0.408c1.298,0,2.24-0.407,2.824-1.227
		c0.584-0.818,0.957-2.027,1.119-3.623h0.557v10.76h-0.557c-0.122-1.169-0.377-2.128-0.764-2.874
		c-0.389-0.746-0.839-1.249-1.352-1.507c-0.514-0.257-1.259-0.386-2.236-0.386v5.773c0,1.131,0.048,1.821,0.144,2.072
		c0.095,0.251,0.272,0.46,0.532,0.619c0.261,0.161,0.684,0.243,1.264,0.243h1.219c1.905,0,3.432-0.443,4.58-1.327
		c1.148-0.888,1.972-2.238,2.474-4.053h0.558l-0.916,6.521h-17.619v-0.563h0.678c0.591,0,1.066-0.104,1.428-0.316
		c0.262-0.142,0.463-0.384,0.603-0.726c0.11-0.242,0.166-0.877,0.166-1.903v-13.51c0-0.927-0.026-1.496-0.075-1.707
		c-0.101-0.353-0.287-0.624-0.559-0.814c-0.379-0.282-0.9-0.424-1.563-0.424h-0.678v-0.564h17.059v6.06h-0.559
		c-0.291-1.481-0.699-2.544-1.227-3.189c-0.525-0.646-1.27-1.12-2.232-1.421c-0.561-0.182-1.613-0.273-3.158-0.273H143.883z"/>
	<path fill="#1F2615" d="M186.497,31.354v0.564c-0.384,0.03-0.705,0.134-0.966,0.316c-0.261,0.181-0.492,0.458-0.692,0.831
		c-0.06,0.122-0.372,0.905-0.936,2.349l-6.379,16.931h-0.586l-5.032-13.297l-5.574,13.297h-0.553l-6.696-16.752
		c-0.682-1.683-1.156-2.701-1.426-3.055s-0.726-0.56-1.365-0.62v-0.564h8.828v0.564c-0.711,0.019-1.184,0.128-1.418,0.325
		c-0.235,0.195-0.354,0.44-0.354,0.732c0,0.385,0.244,1.194,0.734,2.436l3.992,9.958l3.206-7.799l-0.829-2.168
		c-0.461-1.186-0.815-1.979-1.065-2.374c-0.25-0.398-0.538-0.685-0.862-0.854c-0.326-0.17-0.803-0.256-1.434-0.256v-0.564h9.842
		v0.564c-0.69,0.01-1.184,0.064-1.484,0.166c-0.211,0.072-0.375,0.188-0.496,0.354c-0.119,0.168-0.179,0.356-0.179,0.567
		c0,0.232,0.224,0.942,0.675,2.133l3.709,9.715l3.313-8.793c0.351-0.907,0.566-1.527,0.646-1.859
		c0.079-0.332,0.119-0.64,0.119-0.924c0-0.412-0.141-0.737-0.42-0.975c-0.279-0.234-0.816-0.366-1.605-0.385v-0.564H186.497z"/>
	<path fill="none" stroke="#1F2615" stroke-width="0.0639" d="M186.497,31.354v0.564c-0.384,0.03-0.705,0.134-0.966,0.316
		c-0.261,0.181-0.492,0.458-0.692,0.831c-0.06,0.122-0.372,0.905-0.936,2.349l-6.379,16.931h-0.586l-5.032-13.297l-5.574,13.297
		h-0.553l-6.696-16.752c-0.682-1.683-1.156-2.701-1.426-3.055s-0.726-0.56-1.365-0.62v-0.564h8.828v0.564
		c-0.711,0.019-1.184,0.128-1.418,0.325c-0.235,0.195-0.354,0.44-0.354,0.732c0,0.385,0.244,1.194,0.734,2.436l3.992,9.958
		l3.206-7.799l-0.829-2.168c-0.461-1.186-0.815-1.979-1.065-2.374c-0.25-0.398-0.538-0.685-0.862-0.854
		c-0.326-0.17-0.803-0.256-1.434-0.256v-0.564h9.842v0.564c-0.69,0.01-1.184,0.064-1.484,0.166
		c-0.211,0.072-0.375,0.188-0.496,0.354c-0.119,0.168-0.179,0.356-0.179,0.567c0,0.232,0.224,0.942,0.675,2.133l3.709,9.715
		l3.313-8.793c0.351-0.907,0.566-1.527,0.646-1.859c0.079-0.332,0.119-0.64,0.119-0.924c0-0.412-0.141-0.737-0.42-0.975
		c-0.279-0.234-0.816-0.366-1.605-0.385v-0.564H186.497z"/>
	<path fill="#1F2615" d="M206.159,31.354v5.547H205.6c-0.319-1.279-0.672-2.2-1.061-2.76c-0.387-0.56-0.922-1.006-1.598-1.338
		c-0.379-0.182-1.041-0.273-1.987-0.273h-1.526v15.844c0,1.046,0.058,1.701,0.173,1.965c0.113,0.261,0.337,0.489,0.673,0.686
		c0.334,0.197,0.791,0.295,1.37,0.295h0.673v0.563h-10.654v-0.563h0.673c0.589,0,1.063-0.104,1.423-0.316
		c0.258-0.142,0.464-0.384,0.613-0.726c0.109-0.242,0.163-0.877,0.163-1.903V32.53h-1.478c-1.371,0-2.369,0.294-2.992,0.878
		c-0.871,0.816-1.424,1.981-1.652,3.493h-0.56v-5.547H206.159z"/>
	<path fill="none" stroke="#1F2615" stroke-width="0.0639" d="M206.159,31.354v5.547H205.6c-0.319-1.279-0.672-2.2-1.061-2.76
		c-0.387-0.56-0.922-1.006-1.598-1.338c-0.379-0.182-1.041-0.273-1.987-0.273h-1.526v15.844c0,1.046,0.058,1.701,0.173,1.965
		c0.113,0.261,0.337,0.489,0.673,0.686c0.334,0.197,0.791,0.295,1.37,0.295h0.673v0.563h-10.654v-0.563h0.673
		c0.589,0,1.063-0.104,1.423-0.316c0.258-0.142,0.464-0.384,0.613-0.726c0.109-0.242,0.163-0.877,0.163-1.903V32.53h-1.478
		c-1.371,0-2.369,0.294-2.992,0.878c-0.871,0.816-1.424,1.981-1.652,3.493h-0.56v-5.547H206.159z"/>
	<path fill="#1F2615" d="M218.741,32.051c-1.86,0-3.275,0.957-4.244,2.871c-0.791,1.572-1.186,3.829-1.186,6.774
		c0,3.496,0.61,6.08,1.829,7.753c0.853,1.169,2.042,1.753,3.571,1.753c1.029,0,1.89-0.249,2.579-0.756
		c0.882-0.644,1.565-1.677,2.056-3.093c0.49-1.414,0.735-3.259,0.735-5.537c0-2.713-0.251-4.739-0.75-6.086
		c-0.5-1.344-1.138-2.295-1.913-2.85C220.644,32.328,219.75,32.051,218.741,32.051z M218.561,31.074
		c3.24-0.12,5.875,0.831,7.899,2.859c2.026,2.027,3.038,4.564,3.038,7.61c0,2.602-0.755,4.891-2.266,6.868
		c-2.002,2.624-4.826,3.934-8.476,3.934c-3.661,0-6.492-1.25-8.493-3.753c-1.58-1.975-2.369-4.322-2.369-7.034
		c0-3.045,1.025-5.586,3.082-7.618C213.034,31.91,215.561,30.954,218.561,31.074z"/>
	<path fill="none" stroke="#1F2615" stroke-width="0.0639" d="M218.741,32.051c-1.86,0-3.275,0.957-4.244,2.871
		c-0.791,1.572-1.186,3.829-1.186,6.774c0,3.496,0.61,6.08,1.829,7.753c0.853,1.169,2.042,1.753,3.571,1.753
		c1.029,0,1.89-0.249,2.579-0.756c0.882-0.644,1.565-1.677,2.056-3.093c0.49-1.414,0.735-3.259,0.735-5.537
		c0-2.713-0.251-4.739-0.75-6.086c-0.5-1.344-1.138-2.295-1.913-2.85C220.644,32.328,219.75,32.051,218.741,32.051z M218.561,31.074
		c3.24-0.12,5.875,0.831,7.899,2.859c2.026,2.027,3.038,4.564,3.038,7.61c0,2.602-0.755,4.891-2.266,6.868
		c-2.002,2.624-4.826,3.934-8.476,3.934c-3.661,0-6.492-1.25-8.493-3.753c-1.58-1.975-2.369-4.322-2.369-7.034
		c0-3.045,1.025-5.586,3.082-7.618C213.034,31.91,215.561,30.954,218.561,31.074z"/>
	<path fill="#1F2615" d="M238.236,31.354l10.044,12.73v-8.821c0-1.232-0.176-2.064-0.525-2.497
		c-0.479-0.586-1.284-0.868-2.412-0.848v-0.564h6.73v0.564c-0.861,0.111-1.441,0.254-1.736,0.431
		c-0.297,0.176-0.527,0.463-0.691,0.862c-0.166,0.398-0.248,1.083-0.248,2.052v17.082h-0.514l-13.77-17.108v13.07
		c0,1.179,0.267,1.977,0.801,2.392c0.535,0.414,1.148,0.62,1.838,0.62h0.48v0.563h-7.225v-0.563c1.122-0.01,1.903-0.241,2.344-0.696
		c0.441-0.455,0.662-1.227,0.662-2.315V33.812l-0.43-0.535c-0.432-0.544-0.811-0.901-1.142-1.071
		c-0.331-0.171-0.805-0.269-1.427-0.287v-0.564H238.236z"/>
	<path fill="none" stroke="#1F2615" stroke-width="0.0639" d="M238.236,31.354l10.044,12.73v-8.821c0-1.232-0.176-2.064-0.525-2.497
		c-0.479-0.586-1.284-0.868-2.412-0.848v-0.564h6.73v0.564c-0.861,0.111-1.441,0.254-1.736,0.431
		c-0.297,0.176-0.527,0.463-0.691,0.862c-0.166,0.398-0.248,1.083-0.248,2.052v17.082h-0.514l-13.77-17.108v13.07
		c0,1.179,0.267,1.977,0.801,2.392c0.535,0.414,1.148,0.62,1.838,0.62h0.48v0.563h-7.225v-0.563c1.122-0.01,1.903-0.241,2.344-0.696
		c0.441-0.455,0.662-1.227,0.662-2.315V33.812l-0.43-0.535c-0.432-0.544-0.811-0.901-1.142-1.071
		c-0.331-0.171-0.805-0.269-1.427-0.287v-0.564H238.236z"/>
	<path fill="#1F2615" d="M275.25,30.891l0.459,6.97h-0.459c-0.619-2.092-1.504-3.596-2.654-4.514
		c-1.148-0.92-2.528-1.379-4.137-1.379c-1.348,0-2.566,0.345-3.656,1.036c-1.09,0.692-1.946,1.795-2.571,3.31
		c-0.624,1.516-0.937,3.398-0.937,5.65c0,1.857,0.295,3.468,0.884,4.831c0.589,1.362,1.476,2.407,2.658,3.136
		c1.185,0.728,2.534,1.089,4.053,1.089c1.317,0,2.48-0.283,3.489-0.854c1.008-0.571,2.117-1.704,3.326-3.4l0.463,0.299
		c-1.02,1.826-2.209,3.163-3.567,4.009c-1.358,0.849-2.972,1.271-4.843,1.271c-3.369,0-5.976-1.259-7.824-3.783
		c-1.381-1.876-2.069-4.082-2.069-6.626c0-2.048,0.454-3.929,1.364-5.642c0.91-1.716,2.164-3.044,3.758-3.987
		c1.596-0.944,3.338-1.416,5.228-1.416c1.47,0,2.921,0.363,4.351,1.09c0.42,0.225,0.719,0.334,0.899,0.334
		c0.271,0,0.505-0.096,0.706-0.286c0.26-0.273,0.443-0.65,0.555-1.138H275.25z"/>
	<path fill="#1F2615" d="M288.186,32.002c-1.822,0-3.283,0.679-4.385,2.04c-1.372,1.694-2.059,4.174-2.059,7.44
		c0,3.348,0.711,5.925,2.135,7.729c1.09,1.372,2.532,2.057,4.325,2.057c1.911,0,3.491-0.751,4.737-2.252
		c1.247-1.502,1.872-3.873,1.872-7.11c0-3.509-0.687-6.124-2.06-7.848C291.652,32.686,290.13,32.002,288.186,32.002z
		 M288.473,30.891c2.64,0,4.93,1.011,6.865,3.034c1.936,2.021,2.904,4.548,2.904,7.572c0,3.115-0.977,5.704-2.928,7.762
		c-1.95,2.058-4.311,3.086-7.082,3.086c-2.802,0-5.156-1.002-7.063-3.01c-1.906-2.006-2.858-4.604-2.858-7.792
		c0-3.258,1.101-5.917,3.302-7.975C283.525,31.784,285.811,30.891,288.473,30.891z"/>
	<path fill="#1F2615" d="M317.053,46.204l0.491,0.106l-1.74,5.571h-15.743v-0.563h0.76c0.854,0,1.465-0.28,1.832-0.841
		c0.209-0.32,0.313-1.06,0.313-2.221V34.979c0-1.276-0.138-2.074-0.416-2.397c-0.388-0.442-0.964-0.663-1.729-0.663h-0.76v-0.564
		h9.209v0.564c-1.084-0.009-1.842,0.091-2.277,0.302c-0.438,0.211-0.735,0.478-0.896,0.8c-0.16,0.322-0.24,1.091-0.24,2.31v12.898
		c0,0.839,0.08,1.412,0.24,1.726c0.119,0.213,0.305,0.368,0.556,0.47c0.25,0.1,1.03,0.15,2.341,0.15h1.485
		c1.561,0,2.656-0.115,3.286-0.348c0.632-0.23,1.207-0.643,1.728-1.232C316.011,48.405,316.533,47.475,317.053,46.204z"/>
	<path fill="#1F2615" d="M335.824,46.204l0.492,0.106l-1.74,5.571h-15.743v-0.563h0.76c0.854,0,1.465-0.28,1.832-0.841
		c0.209-0.32,0.313-1.06,0.313-2.221V34.979c0-1.276-0.14-2.074-0.418-2.397c-0.387-0.442-0.962-0.663-1.727-0.663h-0.76v-0.564
		h9.209v0.564c-1.084-0.009-1.844,0.091-2.279,0.302s-0.733,0.478-0.895,0.8c-0.162,0.322-0.24,1.091-0.24,2.31v12.898
		c0,0.839,0.078,1.412,0.24,1.726c0.119,0.213,0.304,0.368,0.555,0.47c0.25,0.1,1.031,0.15,2.342,0.15h1.485
		c1.562,0,2.656-0.115,3.286-0.348c0.632-0.23,1.207-0.643,1.728-1.232C334.783,48.405,335.303,47.475,335.824,46.204z"/>
	<path fill="#1F2615" d="M343.397,32.479v8.097h4.449c1.163,0,1.939-0.177,2.33-0.529c0.521-0.464,0.813-1.28,0.871-2.451h0.56
		v7.169h-0.56c-0.14-1-0.281-1.643-0.42-1.926c-0.181-0.354-0.477-0.632-0.887-0.834c-0.41-0.201-1.042-0.303-1.895-0.303h-4.449
		v6.756c0,0.907,0.041,1.461,0.12,1.655c0.081,0.197,0.22,0.354,0.421,0.47c0.199,0.116,0.579,0.174,1.139,0.174h3.447
		c1.15,0,1.984-0.081,2.504-0.241c0.52-0.161,1.018-0.48,1.498-0.954c0.619-0.624,1.256-1.567,1.903-2.826h0.608l-1.755,5.146
		h-15.681v-0.563h0.721c0.479,0,0.933-0.116,1.361-0.348c0.319-0.161,0.537-0.405,0.652-0.729s0.172-0.985,0.172-1.985V34.931
		c0-1.303-0.13-2.105-0.39-2.407c-0.36-0.405-0.959-0.605-1.796-0.605h-0.721v-0.564h15.695l0.213,4.503h-0.591
		c-0.21-1.079-0.442-1.819-0.698-2.226c-0.254-0.403-0.631-0.711-1.131-0.924c-0.4-0.15-1.105-0.229-2.115-0.229H343.397z"/>
	<path fill="#1F2615" d="M374.581,30.891l0.525,6.474h-0.525c-0.531-1.608-1.217-2.818-2.058-3.634
		c-1.21-1.176-2.765-1.763-4.667-1.763c-2.59,0-4.563,1.034-5.913,3.098c-1.13,1.746-1.696,3.821-1.696,6.23
		c0,1.955,0.377,3.738,1.126,5.352c0.751,1.612,1.733,2.795,2.949,3.545c1.214,0.752,2.462,1.126,3.742,1.126
		c0.75,0,1.476-0.097,2.176-0.287c0.699-0.192,1.376-0.475,2.024-0.848V44.25c0-1.033-0.076-1.71-0.231-2.029
		c-0.156-0.32-0.396-0.563-0.722-0.73c-0.326-0.169-0.9-0.252-1.723-0.252v-0.563h7.881v0.563h-0.375
		c-0.781,0-1.316,0.265-1.605,0.791c-0.201,0.377-0.301,1.116-0.301,2.221v6.28c-1.15,0.625-2.283,1.084-3.402,1.376
		c-1.119,0.294-2.363,0.439-3.73,0.439c-3.926,0-6.908-1.271-8.946-3.813c-1.528-1.906-2.293-4.105-2.293-6.597
		c0-1.806,0.431-3.536,1.29-5.189c1.018-1.968,2.418-3.479,4.195-4.54c1.489-0.877,3.248-1.315,5.275-1.315
		c0.74,0,1.412,0.063,2.017,0.183c0.604,0.121,1.461,0.392,2.569,0.807c0.56,0.212,0.935,0.318,1.125,0.318
		c0.189,0,0.352-0.088,0.487-0.266c0.135-0.178,0.217-0.523,0.247-1.042H374.581z"/>
	<path fill="#1F2615" d="M384.362,32.479v8.097h4.447c1.162,0,1.939-0.177,2.329-0.529c0.521-0.464,0.813-1.28,0.872-2.451h0.559
		v7.169h-0.559c-0.141-1-0.279-1.643-0.42-1.926c-0.181-0.354-0.477-0.632-0.887-0.834c-0.411-0.201-1.043-0.303-1.895-0.303h-4.447
		v6.756c0,0.907,0.039,1.461,0.117,1.655c0.081,0.197,0.221,0.354,0.422,0.47c0.199,0.116,0.578,0.174,1.139,0.174h3.447
		c1.15,0,1.983-0.081,2.504-0.241c0.52-0.161,1.018-0.48,1.498-0.954c0.62-0.624,1.255-1.567,1.904-2.826H396l-1.755,5.146h-15.681
		v-0.563h0.721c0.479,0,0.932-0.116,1.361-0.348c0.319-0.161,0.536-0.405,0.651-0.729s0.173-0.985,0.173-1.985V34.931
		c0-1.303-0.13-2.105-0.39-2.407c-0.358-0.405-0.959-0.605-1.796-0.605h-0.721v-0.564h15.695l0.214,4.503h-0.593
		c-0.21-1.079-0.441-1.819-0.697-2.226c-0.254-0.403-0.631-0.711-1.131-0.924c-0.4-0.15-1.105-0.229-2.115-0.229H384.362z"/>
	<polygon fill="#9FA274" points="115.324,60.495 119.095,60.495 118.948,61.177 115.932,61.177 115.356,64.014 118.247,64.014 
		118.112,64.697 115.233,64.697 114.432,68.443 113.651,68.443 	"/>
	<path fill="#9FA274" d="M121.182,67.964c1.49,0,2.328-1.594,2.328-2.96c0-1.094-0.486-1.891-1.604-1.891
		c-1.593,0-2.338,1.572-2.338,3.052C119.569,67.167,120.178,67.964,121.182,67.964z M121.997,62.5c1.467,0,2.291,0.99,2.291,2.494
		c0,1.935-1.209,3.586-3.195,3.586c-1.422,0-2.303-1.081-2.303-2.527C118.79,64.104,120.042,62.5,121.997,62.5z"/>
	<path fill="#9FA274" d="M129.652,67.52c-0.067,0.39-0.113,0.639-0.135,0.923h-0.712c0.034-0.363,0.067-0.672,0.125-0.876h-0.023
		c-0.395,0.615-1.117,1.013-1.829,1.013c-1.04,0-1.808-0.591-1.808-1.687c0-0.397,0.091-0.829,0.17-1.194l0.645-3.063h0.745
		l-0.655,3.2c-0.078,0.376-0.125,0.627-0.125,1.013c0,0.685,0.385,1.116,1.107,1.116c1.242,0,1.908-1.24,2.18-2.574l0.564-2.755
		h0.744L129.652,67.52z"/>
	<path fill="#9FA274" d="M132.216,63.558c0.069-0.388,0.114-0.637,0.137-0.923h0.71c-0.033,0.365-0.066,0.672-0.125,0.878h0.023
		c0.395-0.615,1.119-1.014,1.829-1.014c1.04,0,1.808,0.591,1.808,1.686c0,0.397-0.09,0.831-0.169,1.194l-0.646,3.063h-0.744
		l0.654-3.2c0.078-0.375,0.125-0.625,0.125-1.014c0-0.681-0.383-1.115-1.107-1.115c-1.242,0-1.908,1.242-2.18,2.574l-0.563,2.755
		h-0.745L132.216,63.558z"/>
	<path fill="#9FA274" d="M139.816,67.964c1.288,0,2.214-1.719,2.214-3.007c0-1.035-0.475-1.844-1.467-1.844
		c-1.48,0-2.158,1.777-2.158,3.121C138.405,67.202,138.823,67.964,139.816,67.964z M142.313,67.304
		c-0.104,0.467-0.172,0.866-0.192,1.139h-0.733c0.032-0.319,0.1-0.693,0.179-0.923h-0.021c-0.417,0.626-0.993,1.06-1.966,1.06
		c-1.39,0-1.953-1.174-1.953-2.482c0-1.618,1.051-3.598,2.879-3.598c0.836,0,1.547,0.41,1.762,1.208h0.023l0.79-3.803h0.745
		L142.313,67.304z"/>
	<path fill="#9FA274" d="M148.172,65.128c0.012-0.159,0.034-0.307,0.034-0.442c0-0.945-0.396-1.572-1.321-1.572
		c-1.106,0-1.92,0.956-2.111,2.015H148.172z M144.651,65.744c-0.023,0.149-0.035,0.309-0.035,0.468c0,1.114,0.733,1.753,1.75,1.753
		c0.713,0,1.23-0.193,1.683-0.386l-0.056,0.692c-0.339,0.127-0.779,0.309-1.717,0.309c-1.344,0-2.373-0.809-2.373-2.368
		c0-1.947,1.131-3.712,2.982-3.712c1.354,0,2.033,0.841,2.033,2.163c0,0.354-0.046,0.717-0.078,1.081H144.651z"/>
	<path fill="#9FA274" d="M151.741,67.964c1.289,0,2.213-1.719,2.213-3.007c0-1.035-0.474-1.844-1.467-1.844
		c-1.479,0-2.156,1.777-2.156,3.121C150.331,67.202,150.748,67.964,151.741,67.964z M154.239,67.304
		c-0.104,0.467-0.172,0.866-0.194,1.139h-0.733c0.034-0.319,0.102-0.693,0.181-0.923h-0.023c-0.417,0.626-0.991,1.06-1.964,1.06
		c-1.39,0-1.954-1.174-1.954-2.482c0-1.618,1.052-3.598,2.88-3.598c0.836,0,1.547,0.41,1.762,1.208h0.023l0.789-3.803h0.746
		L154.239,67.304z"/>
	<polygon fill="#9FA274" points="162.379,61.383 160.877,62.464 160.515,61.931 162.727,60.495 163.315,60.495 161.657,68.443 
		160.91,68.443 	"/>
	<path fill="#9FA274" d="M166.536,63.216c0,0.865,0.541,1.618,1.762,1.618c0.982,0,1.806-0.9,1.806-1.947
		c0-1.048-0.688-1.857-1.694-1.788C167.325,61.099,166.536,62.203,166.536,63.216z M165.485,67.441
		c0.385,0.217,0.96,0.399,1.58,0.399c1.672,0,2.756-1.696,2.947-3.213h-0.021c-0.576,0.569-1.097,0.89-2.032,0.89
		c-1.3,0-2.202-0.957-2.202-2.21c0-1.582,1.15-2.893,2.699-2.893c1.908,0,2.428,1.425,2.428,2.964c0,2.457-1.254,5.143-3.863,5.143
		c-0.631,0-1.253-0.146-1.74-0.386L165.485,67.441z"/>
	<polygon fill="#9FA274" points="177.443,61.11 172.78,68.443 171.886,68.443 176.563,61.177 172.645,61.177 172.78,60.495 
		177.556,60.495 	"/>
	<path fill="#9FA274" d="M179.092,63.216c0,0.865,0.541,1.618,1.762,1.618c0.982,0,1.807-0.9,1.807-1.947
		c0-1.048-0.689-1.857-1.695-1.788C179.882,61.099,179.092,62.203,179.092,63.216z M178.042,67.441
		c0.385,0.217,0.961,0.399,1.58,0.399c1.672,0,2.756-1.696,2.948-3.213h-0.021c-0.577,0.569-1.097,0.89-2.033,0.89
		c-1.3,0-2.202-0.957-2.202-2.21c0-1.582,1.151-2.893,2.699-2.893c1.908,0,2.428,1.425,2.428,2.964c0,2.457-1.255,5.143-3.862,5.143
		c-0.632,0-1.253-0.146-1.74-0.386L178.042,67.441z"/>
</g>
</svg>
